<?xml version="1.0" encoding="UTF-8"?>
<svg version="1.1" xmlns="http://www.w3.org/2000/svg" width="48" height="48">
<path d="M0 0 C0.80232056 -0.00241196 1.60464111 -0.00482391 2.43127441 -0.00730896 C4.12236489 -0.00633237 5.81348807 0.00701667 7.50439453 0.03198242 C10.08607073 0.06630416 12.6643234 0.05263157 15.24609375 0.03320312 C16.89324367 0.04010196 18.54038479 0.0497747 20.1875 0.0625 C20.95533813 0.05754013 21.72317627 0.05258026 22.51428223 0.04747009 C27.48642674 0.15618995 30.11272626 1.05818691 33.59375 4.62890625 C36.02218172 9.4857697 34.90632287 16.912198 34.94384766 22.31323242 C34.96039961 24.06011281 34.98767995 25.80692568 35.02587891 27.5534668 C35.08073252 30.07506351 35.10253326 32.595074 35.1171875 35.1171875 C35.13985687 35.8944368 35.16252625 36.6716861 35.18588257 37.4724884 C35.17104561 41.29326792 34.72897194 43.42730681 32.58642578 46.62158203 C28.76632694 49.18389666 25.63858868 49.33466915 21.1875 49.2578125 C20.38517944 49.26022446 19.58285889 49.26263641 18.75622559 49.26512146 C17.06513511 49.26414487 15.37401193 49.25079583 13.68310547 49.22583008 C11.10142927 49.19150834 8.5231766 49.20518093 5.94140625 49.22460938 C4.29425633 49.21771054 2.64711521 49.2080378 1 49.1953125 C0.23216187 49.20027237 -0.53567627 49.20523224 -1.32678223 49.21034241 C-6.29892674 49.10162255 -8.92522626 48.19962559 -12.40625 44.62890625 C-14.83468172 39.7720428 -13.71882287 32.3456145 -13.75634766 26.94458008 C-13.77289961 25.19769969 -13.80017995 23.45088682 -13.83837891 21.7043457 C-13.89323252 19.18274899 -13.91503326 16.6627385 -13.9296875 14.140625 C-13.95235687 13.3633757 -13.97502625 12.5861264 -13.99838257 11.7853241 C-13.98354561 7.96454458 -13.54147194 5.83050569 -11.39892578 2.63623047 C-7.57882694 0.07391584 -4.45108868 -0.07685665 0 0 Z " fill="#15504A" transform="translate(13.40625,-0.62890625)"/>
<path d="M0 0 C0.98484375 0.01804687 1.9696875 0.03609375 2.984375 0.0546875 C4.10585938 0.08949219 4.10585938 0.08949219 5.25 0.125 C3.96034824 1.50062854 2.62310707 2.83266393 1.25 4.125 C0.59 4.125 -0.07 4.125 -0.75 4.125 C-0.95970559 8.26593698 -0.95970559 8.26593698 0.25 12.125 C2.20108668 12.85068402 2.20108668 12.85068402 4.5 13.4375 C8.86550309 14.8369675 11.53602791 16.27291058 14.25 20.125 C14.95279752 24.41987371 14.56926339 26.51012237 12.5625 30.375 C9.36172062 34.18133224 6.94713361 35.97577958 1.91796875 36.41796875 C0.76941406 36.38316406 -0.37914062 36.34835938 -1.5625 36.3125 C-3.30466797 36.27189453 -3.30466797 36.27189453 -5.08203125 36.23046875 C-5.96246094 36.19566406 -6.84289062 36.16085938 -7.75 36.125 C-6.76773437 34.96291016 -6.76773437 34.96291016 -5.765625 33.77734375 C-3.55955595 31.35217515 -3.55955595 31.35217515 -3.5 28.6875 C-5.20235497 25.19767232 -7.7416654 23.78996064 -10.87109375 21.58984375 C-14.45003218 18.79961109 -14.63790881 16.00571649 -15.1875 11.6875 C-14.59656822 6.87562697 -13.19416163 5.49088523 -9.75 2.125 C-6.4568677 0.01711144 -3.86836988 -0.09210404 0 0 Z " fill="#E5B109" transform="translate(25.75,4.875)"/>
<path d="M0 0 C1 2 1 2 0.875 5.25 C1.03730632 10.11918959 2.43563274 13.26181415 5.6875 16.875 C6.120625 17.24625 6.55375 17.6175 7 18 C2.68433833 17.52048204 0.7980059 16.29764982 -2 13 C-3.52846661 9.94306678 -3.23242445 7.37015453 -3 4 C-1.5 1.5625 -1.5 1.5625 0 0 Z " fill="#177567" transform="translate(11,11)"/>
</svg>
