<?xml version="1.0" encoding="UTF-8"?>
<svg version="1.1" xmlns="http://www.w3.org/2000/svg" width="192" height="192">
<path d="M0 0 C1.20313339 -0.00700928 2.40626678 -0.01401855 3.64585876 -0.02124023 C6.91259433 -0.0357215 10.17867016 -0.03247929 13.44539452 -0.01972389 C16.88487369 -0.00950518 20.32431281 -0.01901392 23.76379395 -0.02526855 C29.53678142 -0.03251943 35.30956335 -0.02302504 41.08251953 -0.00390625 C47.73043751 0.01785778 54.37786456 0.01080457 61.02577066 -0.01121187 C66.76204036 -0.02943942 72.49816339 -0.03188853 78.23445272 -0.0214572 C81.64800643 -0.01526238 85.06133038 -0.0142745 88.47486877 -0.02760315 C92.2843593 -0.03782052 96.0929219 -0.02219313 99.90234375 0 C101.01435654 -0.00809692 102.12636932 -0.01619385 103.27207947 -0.02453613 C116.13883419 0.11355026 125.14456889 4.57105414 134.35351562 13.32617188 C140.93045711 20.24851072 146.55254339 29.85357199 146.5983429 39.54980469 C146.60907585 41.10979942 146.60907585 41.10979942 146.62002563 42.7013092 C146.62271454 43.8420842 146.62540344 44.98285919 146.62817383 46.15820312 C146.63474503 47.3601683 146.64131622 48.56213348 146.64808655 49.80052185 C146.66784102 53.78954313 146.6794926 57.77852415 146.68945312 61.76757812 C146.69350222 63.14393127 146.69761919 64.52028422 146.70180321 65.89663696 C146.72085758 72.3684836 146.73508397 78.84031886 146.74341518 85.31218815 C146.75316688 92.76338942 146.77943081 100.21429197 146.81991607 107.66538811 C146.85018187 113.4354266 146.8648942 119.20538003 146.86819619 124.97549629 C146.87053623 128.41605007 146.87935755 131.85628489 146.90465736 135.29675293 C146.92908934 139.14533999 146.92807529 142.99315547 146.92114258 146.84179688 C146.94035767 148.52866859 146.94035767 148.52866859 146.95996094 150.24961853 C146.87944212 162.57074939 142.68717788 172.37120185 134.45117188 181.51757812 C124.6423417 190.28533843 113.79923076 193.12904555 100.88647461 193.03515625 C99.68173492 193.04216553 98.47699524 193.0491748 97.23574829 193.05639648 C93.96494803 193.07087718 90.69480673 193.06763645 87.42401767 193.05488014 C83.98140129 193.04466327 80.538825 193.05416946 77.09620667 193.0604248 C71.31902307 193.06767523 65.5420449 193.05818147 59.76489258 193.0390625 C53.10900247 193.01728823 46.45360249 193.0243593 39.79772419 193.04636812 C34.05637464 193.06458461 28.31517167 193.06705043 22.57380253 193.05661345 C19.15636839 193.05041394 15.73916382 193.04944421 12.32174492 193.0627594 C8.50965519 193.07296421 4.69849542 193.05736722 0.88647461 193.03515625 C-0.22913345 193.04325317 -1.34474152 193.0513501 -2.49415588 193.05969238 C-14.27672895 192.93307585 -24.0295281 188.53447338 -32.67773438 180.55273438 C-39.5562869 173.33482253 -45.64783981 163.68118584 -45.69599915 153.48535156 C-45.70315445 152.44535507 -45.71030975 151.40535858 -45.71768188 150.33384705 C-45.72037079 149.19307205 -45.72305969 148.05229706 -45.72583008 146.87695312 C-45.73240128 145.67498795 -45.73897247 144.47302277 -45.7457428 143.2346344 C-45.76549727 139.24561312 -45.77714885 135.2566321 -45.78710938 131.26757812 C-45.79115847 129.89122498 -45.79527544 128.51487203 -45.79945946 127.13851929 C-45.81851383 120.66667265 -45.83274022 114.19483739 -45.84107143 107.7229681 C-45.85082313 100.27176683 -45.87708706 92.82086428 -45.91757232 85.36976814 C-45.94783812 79.59972965 -45.96255045 73.82977622 -45.96585244 68.05965996 C-45.96819248 64.61910618 -45.9770138 61.17887136 -46.00231361 57.73840332 C-46.02674559 53.88981626 -46.02573154 50.04200078 -46.01879883 46.19335938 C-46.03160889 45.06877823 -46.04441895 43.94419708 -46.05761719 42.78553772 C-45.97709837 30.46440686 -41.78483413 20.6639544 -33.54882812 11.51757812 C-23.74576604 2.75497371 -12.90589219 -0.09397196 0 0 Z " fill="#134E49" transform="translate(45.548828125,-0.517578125)"/>
<path d="M0 0 C-3.27758625 1.7417125 -6.6371164 2.98931918 -10.125 4.25 C-20.61598272 8.28861624 -28.82044191 12.64088382 -34 23 C-34.91359174 31.2484283 -34.17810855 38.2951764 -29 45 C-23.96535067 49.35527496 -16.97200684 49.90844302 -10.66015625 51.1640625 C3.05569839 54.29660561 15.69939212 60.36381297 24 72 C29.54582798 81.88604119 30.75542208 93.5218254 27.875 104.5234375 C22.46418982 119.83796276 13.82682218 129.87015579 -0.93768311 137.06811523 C-13.69056014 142.83066892 -26.69952942 143.73061685 -40.50976562 143.48706055 C-43.4209991 143.43670434 -46.33055311 143.42550809 -49.2421875 143.41992188 C-51.10678889 143.40586619 -52.97137569 143.38967284 -54.8359375 143.37109375 C-55.69939789 143.36573105 -56.56285828 143.36036835 -57.45248413 143.35484314 C-58.25497589 143.33885574 -59.05746765 143.32286835 -59.88427734 143.30639648 C-60.58499359 143.29575668 -61.28570984 143.28511688 -62.00765991 143.27415466 C-64.32398897 142.95541771 -65.97358663 142.14048959 -68 141 C-66.329375 140.4121875 -66.329375 140.4121875 -64.625 139.8125 C-55.4181956 136.30281393 -47.34206506 132.9376661 -42.8671875 123.6484375 C-41.01166149 117.98156077 -40.69441832 110.68606141 -43.4375 105.25 C-47.91029723 98.81353569 -54.45168194 94.26951712 -60.9375 90.0625 C-73.13502883 82.09137607 -82.78492766 72.3395382 -86.5546875 57.87109375 C-88.73335055 43.82445038 -87.431287 31.29181593 -79.4375 19.375 C-69.56855345 6.61091968 -56.248614 -0.78123073 -40.4296875 -3.52734375 C-27.11277402 -5.17244769 -12.31887422 -6.05137681 0 0 Z " fill="#E8B208" transform="translate(131,23)"/>
<path d="M0 0 C0.66 0.33 1.32 0.66 2 1 C1.32904297 1.80050781 1.32904297 1.80050781 0.64453125 2.6171875 C-7.25227583 12.34928663 -11.17286042 20.73909976 -11.25 33.1875 C-11.270625 34.00025391 -11.29125 34.81300781 -11.3125 35.65039062 C-11.35052713 41.6254028 -10.22544892 46.47061536 -8 52 C-7.63519531 52.9075 -7.27039063 53.815 -6.89453125 54.75 C-0.33867255 68.38239933 10.55599908 75.17868252 23 83 C16.42762666 85.19079111 7.63869221 81.14574793 1.4375 78.453125 C-10.26686667 72.43531383 -18.84939421 65.39615296 -23.10546875 52.703125 C-25.95531459 40.9055099 -24.5217931 28.77882724 -18.421875 18.28515625 C-13.43372364 10.81416378 -7.67664938 4.68088377 0 0 Z " fill="#11756C" transform="translate(56,35)"/>
<path d="M0 0 C0 0.66 0 1.32 0 2 C-0.61746094 2.14695312 -1.23492187 2.29390625 -1.87109375 2.4453125 C-11.37852275 4.96326173 -18.86025014 9.20114074 -24.0703125 17.7578125 C-26.26731852 23.05647409 -26.13665995 30.15608585 -24.01953125 35.453125 C-22.79133364 37.43335745 -21.48999992 39.21031171 -20 41 C-19.236875 41.99 -18.47375 42.98 -17.6875 44 C-17.130625 44.66 -16.57375 45.32 -16 46 C-21.45856395 45.56331488 -24.87710862 44.67475101 -29 41 C-33.27155468 35.05354625 -34.8894806 29.19001049 -34.54296875 21.89453125 C-33.29858589 15.2608068 -29.29761961 10.78674993 -24.125 6.6875 C-22.7662811 5.76716022 -21.39133546 4.87024594 -20 4 C-19.38382813 3.58621094 -18.76765625 3.17242188 -18.1328125 2.74609375 C-12.31513941 -0.71795641 -6.61127423 -0.39667645 0 0 Z " fill="#157669" transform="translate(130,27)"/>
<path d="M0 0 C0.99 0.495 0.99 0.495 2 1 C-10.57170353 10.84783443 -24.93508449 14.18565655 -40.5625 14.25 C-42.40038086 14.2809375 -42.40038086 14.2809375 -44.27539062 14.3125 C-51.79869987 14.34456525 -58.98100465 13.96313708 -66 11 C-66.33 10.34 -66.66 9.68 -67 9 C-61.87992634 6.93487633 -57.49874058 6.73403227 -52.078125 6.76171875 C-50.31119046 6.74627294 -48.54426328 6.72996748 -46.77734375 6.71289062 C-44.0331986 6.69661715 -41.28959839 6.68739634 -38.54541016 6.69458008 C-25.40375023 6.70773849 -12.00672135 6.00336068 0 0 Z " fill="#167669" transform="translate(130,159)"/>
</svg>
