<?xml version="1.0" encoding="UTF-8"?>
<svg version="1.1" xmlns="http://www.w3.org/2000/svg" width="96" height="96">
<path d="M0 0 C1.31849442 -0.0127597 2.63698883 -0.02551941 3.99543762 -0.03866577 C5.43274794 -0.04172379 6.87006022 -0.04395135 8.30737305 -0.04541016 C9.78704456 -0.05184057 11.2667148 -0.05856912 12.74638367 -0.06558228 C15.84739121 -0.07755024 18.9482874 -0.0812637 22.04931641 -0.08007812 C26.01043253 -0.07987518 29.97082923 -0.1071534 33.93177509 -0.14162254 C36.98855322 -0.16393427 40.04515953 -0.16791434 43.10201073 -0.16685867 C44.56157086 -0.16920913 46.02113613 -0.17800129 47.48061562 -0.19352341 C56.35099967 -0.27901605 62.65130105 -0.20037038 69.43237305 6.07177734 C69.88999023 6.63896484 70.34760742 7.20615234 70.8190918 7.79052734 C71.28959961 8.35771484 71.76010742 8.92490234 72.24487305 9.50927734 C75.1830404 13.65727831 75.76593718 16.65056286 75.81298828 21.76806641 C75.82897568 23.08333313 75.84496307 24.39859985 75.86143494 25.75372314 C75.86781312 27.18786226 75.87320539 28.62200605 75.87768555 30.05615234 C75.886658 31.53342782 75.89577996 33.0107024 75.90504456 34.48797607 C75.92152455 37.5847799 75.92923245 40.68147578 75.93212891 43.77832031 C75.93750245 47.73051211 75.97514237 51.68167681 76.02087307 55.63357925 C76.05074518 58.68611268 76.05785469 61.73840221 76.05885506 64.79106903 C76.06303968 66.24703409 76.07540299 67.70300105 76.0963726 69.15882111 C76.20339909 77.23392939 76.23783387 84.04085658 70.5065918 90.29052734 C65.4921775 94.93803328 61.84376954 96.53617338 55.01318359 96.58105469 C53.69468918 96.59381439 52.37619476 96.6065741 51.01774597 96.61972046 C49.58043566 96.62277848 48.14312337 96.62500604 46.70581055 96.62646484 C45.22613904 96.63289526 43.74646879 96.63962381 42.26679993 96.64663696 C39.16579239 96.65860492 36.06489619 96.66231839 32.96386719 96.66113281 C29.00275107 96.66092987 25.04235437 96.68820809 21.0814085 96.72267723 C18.02463038 96.74498896 14.96802406 96.74896903 11.91117287 96.74791336 C10.45161273 96.75026381 8.99204746 96.75905598 7.53256798 96.77457809 C-1.33781608 96.86007073 -7.63811746 96.78142507 -14.41918945 90.50927734 C-15.10561523 89.65849609 -15.10561523 89.65849609 -15.8059082 88.79052734 C-16.51166992 87.93974609 -16.51166992 87.93974609 -17.23168945 87.07177734 C-20.16985681 82.92377638 -20.75275358 79.93049182 -20.79980469 74.81298828 C-20.82378578 72.8400882 -20.82378578 72.8400882 -20.84825134 70.82733154 C-20.85462953 69.39319243 -20.8600218 67.95904864 -20.86450195 66.52490234 C-20.87347441 65.04762687 -20.88259636 63.57035229 -20.89186096 62.09307861 C-20.90834095 58.99627479 -20.91604886 55.89957891 -20.91894531 52.80273438 C-20.92431886 48.85054258 -20.96195878 44.89937788 -21.00768948 40.94747543 C-21.03756158 37.89494201 -21.04467109 34.84265248 -21.04567146 31.78998566 C-21.04985608 30.3340206 -21.0622194 28.87805363 -21.08318901 27.42223358 C-21.19021549 19.3471253 -21.22465027 12.54019811 -15.4934082 6.29052734 C-10.4789939 1.64302141 -6.83058595 0.04488131 0 0 Z " fill="#134E49" transform="translate(20.493408203125,-0.29052734375)"/>
<path d="M0 0 C-1 2 -1 2 -2.890625 2.67578125 C-3.66921875 2.88589844 -4.4478125 3.09601562 -5.25 3.3125 C-9.60745741 4.66553216 -12.02146501 6.4629897 -15 10 C-15.33 10.33 -15.66 10.66 -16 11 C-16.14001682 15.27051305 -16.16665907 18.87965644 -15 23 C-14.32195313 23.17015625 -13.64390625 23.3403125 -12.9453125 23.515625 C7.00605165 28.71071705 7.00605165 28.71071705 13.3125 37.0625 C15.82184677 41.87550939 15.83308293 46.71897861 15 52 C12.53716191 59.38851427 8.81024648 64.49696909 1.79296875 68.1484375 C-3.92461652 70.8223331 -8.95433178 72.13476999 -15.30078125 72.09765625 C-16.27724609 72.09443359 -17.25371094 72.09121094 -18.25976562 72.08789062 C-19.26716797 72.07951172 -20.27457031 72.07113281 -21.3125 72.0625 C-22.33923828 72.05798828 -23.36597656 72.05347656 -24.42382812 72.04882812 C-26.94927882 72.03708184 -29.47460905 72.02065565 -32 72 C-32 71.34 -32 70.68 -32 70 C-31.45730469 69.75765625 -30.91460937 69.5153125 -30.35546875 69.265625 C-24.64226059 66.77435518 -24.64226059 66.77435518 -21 62 C-20.52035307 57.6831776 -20.32698198 55.25426085 -22.375 51.4375 C-25.55103225 48.4883272 -29.0140031 46.18993466 -32.59375 43.7578125 C-35.77298187 41.43532169 -37.73701105 39.22304488 -40 36 C-40.598125 35.154375 -41.19625 34.30875 -41.8125 33.4375 C-43.99909644 27.10787873 -44.26138224 20.49269098 -41.96875 14.14453125 C-37.49198493 5.92469317 -30.34331463 1.09493463 -21.45703125 -1.53515625 C-14.14930378 -2.91769928 -6.97547835 -2.53653758 0 0 Z " fill="#E7B109" transform="translate(65,11)"/>
<path d="M0 0 C-1.8338519 4.71561917 -1.8338519 4.71561917 -3.04296875 6.78515625 C-5.36626511 12.16192783 -4.94079375 19.16081885 -3.125 24.640625 C-0.7422701 29.24932625 2.2625556 32.54704528 6.3515625 35.7109375 C8.0398256 37.03114324 9.51320067 38.45913524 11 40 C3.6036981 39.67842166 -2.51982354 36.48794471 -7.75 31.24609375 C-11.250079 26.48320216 -11.74217128 21.78845537 -11.4921875 15.97265625 C-10.61676975 10.68541094 -6.39351836 0 0 0 Z " fill="#13756A" transform="translate(27,19)"/>
<path d="M0 0 C-0.556875 0.4125 -1.11375 0.825 -1.6875 1.25 C-6.50362005 4.53979441 -6.50362005 4.53979441 -10 9 C-10.23439519 13.2191134 -10.38881554 16.41677669 -8 20 C-7.34 20.66 -6.68 21.32 -6 22 C-9.68268739 21.50233954 -11.65028767 20.93714041 -14 18 C-15.61020217 14.77959567 -15.60275795 11.48260151 -15 8 C-12.75 5.1875 -12.75 5.1875 -10 3 C-9.360625 2.401875 -8.72125 1.80375 -8.0625 1.1875 C-5.29634792 -0.40513301 -3.13402799 -0.21368373 0 0 Z " fill="#1B7766" transform="translate(63,14)"/>
<path d="M0 0 C-6.59333408 4.97610119 -13.0164928 5.46994504 -21 5.4375 C-21.94447998 5.43492188 -22.88895996 5.43234375 -23.86206055 5.4296875 C-30.71909547 5.28090453 -30.71909547 5.28090453 -33 3 C-31.38884655 1.38884655 -29.59877058 1.8154924 -27.37109375 1.75390625 C-25.94120117 1.70459961 -25.94120117 1.70459961 -24.48242188 1.65429688 C-22.47990817 1.59392603 -20.47730158 1.53654869 -18.47460938 1.48242188 C-13.96892413 1.32247458 -9.77603487 1.07743108 -5.41015625 -0.09765625 C-2 -1 -2 -1 0 0 Z " fill="#197667" transform="translate(65,81)"/>
<path d="M0 0 C-1.07401108 2.91517292 -1.77810176 4.77810176 -4 7 C-4.99 7 -5.98 7 -7 7 C-3.86206897 0 -3.86206897 0 0 0 Z " fill="#1D7664" transform="translate(27,19)"/>
</svg>
