<?xml version="1.0" encoding="UTF-8"?>
<svg version="1.1" xmlns="http://www.w3.org/2000/svg" width="512" height="512">
<path d="M0 0 C1.28030535 -0.00367669 2.5606107 -0.00735338 3.87971318 -0.01114148 C7.42257464 -0.02111524 10.96541917 -0.02487079 14.50829268 -0.02753079 C18.33403199 -0.03144767 22.15975807 -0.04102504 25.98548889 -0.04974365 C35.21966093 -0.06946971 44.45383401 -0.07956965 53.68802184 -0.08847144 C58.04318639 -0.09286092 62.39834974 -0.09822603 66.75351334 -0.10346031 C81.242609 -0.1204692 95.73170392 -0.13496138 110.22080803 -0.14220905 C113.97745642 -0.14411875 117.73410481 -0.14603911 121.49075317 -0.147995 C122.89119197 -0.14872061 122.89119197 -0.14872061 124.31992246 -0.14946087 C139.43000293 -0.15775384 154.54000405 -0.18307987 169.65004991 -0.21557567 C185.18463566 -0.24871043 200.71918117 -0.26666362 216.25380242 -0.26985329 C224.96719355 -0.27201252 233.68046898 -0.28067473 242.39382553 -0.30631447 C249.81743836 -0.32810938 257.24090737 -0.33602897 264.66454856 -0.32634769 C268.44596331 -0.32182819 272.22708189 -0.32355034 276.00845528 -0.34310913 C309.91509182 -0.50861696 337.09105672 6.88583487 362.31399536 30.14717102 C363.73325317 31.44267883 363.73325317 31.44267883 365.18118286 32.76435852 C383.84968717 50.58669833 399.84448818 76.83053503 401.50070059 103.10961854 C401.57333691 106.46433893 401.58541702 109.81393631 401.57469177 113.16943359 C401.57851732 114.4496298 401.58234287 115.729826 401.58628434 117.04881603 C401.59651359 120.57738878 401.59439554 124.10585936 401.59010375 127.6344403 C401.58762718 131.44986734 401.59666231 135.26527036 401.60414124 139.08068848 C401.61686546 146.54670912 401.61868469 154.01269376 401.61634097 161.47872343 C401.61455474 167.5514916 401.61631399 173.62424889 401.62056541 179.69701576 C401.6211606 180.56279345 401.62175579 181.42857114 401.62236902 182.32058451 C401.62358083 184.0797012 401.62479497 185.83881789 401.62601139 187.59793458 C401.63687862 204.08176951 401.63472859 220.56558396 401.62862655 237.04942004 C401.62346074 252.10568331 401.63470541 267.16188182 401.65372477 282.21813228 C401.67313187 297.70082732 401.68135397 313.18349176 401.67760152 328.66619903 C401.67569349 337.34927204 401.67813784 346.03228997 401.69231606 354.71535301 C401.70426766 362.10929682 401.70559274 369.50315166 401.69352589 376.89709678 C401.68766299 380.66405304 401.68646525 384.43084689 401.69852829 388.19779205 C401.7845588 416.99166206 401.7845588 416.99166206 398.31399536 429.14717102 C398.12730947 429.88600368 397.94062357 430.62483633 397.74828053 431.38605785 C390.61890873 458.36576396 371.30329266 483.06356316 347.27053833 497.05049133 C329.26838187 507.14104372 311.26112841 512.29752885 290.62799072 512.29434204 C289.34768537 512.29801873 288.06738003 512.30169542 286.74827754 512.30548352 C283.20541608 512.31545728 279.66257155 512.31921283 276.11969805 512.32187283 C272.29395873 512.32578971 268.46823265 512.33536708 264.64250183 512.34408569 C255.40832979 512.36381175 246.17415672 512.37391169 236.93996888 512.38281348 C232.58480433 512.38720296 228.22964099 512.39256807 223.87447739 512.39780235 C209.38538173 512.41481124 194.8962868 512.42930342 180.40718269 512.43655109 C176.6505343 512.4384608 172.89388592 512.44038116 169.13723755 512.44233704 C168.20361168 512.44282078 167.26998582 512.44330452 166.30806826 512.44380292 C151.19798779 512.45209588 136.08798667 512.47742191 120.97794081 512.50991771 C105.44335507 512.54305247 89.90880956 512.56100567 74.3741883 512.56419533 C65.66079717 512.56635456 56.94752174 512.57501677 48.23416519 512.60065651 C40.81055236 512.62245142 33.38708336 512.63037101 25.96344216 512.62068973 C22.18202741 512.61617024 18.40090883 512.61789238 14.61953545 512.63745117 C-22.12070723 512.81680695 -50.05021008 503.4216293 -76.68600464 477.52217102 C-97.47790845 456.58629751 -111.0310497 428.7856152 -110.95343018 399.10713196 C-110.95796129 397.8249689 -110.9624924 396.54280584 -110.96716082 395.22178936 C-110.97931891 391.68761185 -110.9791389 388.15352951 -110.97677207 384.61933589 C-110.97636206 380.79771282 -110.98742074 376.97611951 -110.99688721 373.1545105 C-111.01345993 365.6754555 -111.01899511 358.19643203 -111.02011196 350.7173602 C-111.02106445 344.63222221 -111.02518475 338.54709456 -111.03151321 332.46195984 C-111.04911742 315.18089656 -111.05835366 297.89985805 -111.05685227 280.61878574 C-111.05677235 279.68826519 -111.05669244 278.75774463 -111.05661011 277.79902649 C-111.05652835 276.86735944 -111.05644658 275.93569239 -111.05636235 274.975793 C-111.05555024 259.89243993 -111.07467094 244.8091869 -111.10288684 229.72586274 C-111.13168026 214.21038187 -111.14542351 198.69494969 -111.14369929 183.17944145 C-111.14303749 174.48004301 -111.14843679 165.78074938 -111.17005539 157.08137512 C-111.18835266 149.67139682 -111.19254512 142.26157083 -111.17903654 134.85157961 C-111.17254894 131.07812702 -111.17223496 127.30496588 -111.18974304 123.53154182 C-111.34512033 87.76593273 -103.24756273 57.83097462 -77.56100464 31.52217102 C-56.71390544 10.82924315 -29.20110677 -0.00451014 0 0 Z " fill="#134E49" transform="translate(110.68600463867188,-0.1471710205078125)"/>
<path d="M0 0 C2.54429018 0.01847795 5.08821734 0.02050703 7.63256836 0.02026367 C20.102914 0.04533464 31.97241964 0.82772729 44.20874023 3.39331055 C45.24256836 3.60818115 46.27639648 3.82305176 47.34155273 4.04443359 C56.39530151 6.00883376 64.9782296 8.80336001 73.58374023 12.20581055 C70.89469435 13.9985078 69.6651783 14.56601612 66.65405273 15.21362305 C65.8694165 15.39119141 65.08478027 15.56875977 64.27636719 15.75170898 C63.42905029 15.9428125 62.5817334 16.13391602 61.70874023 16.33081055 C40.14110922 21.49619233 18.93378124 30.16184035 1.58374023 44.20581055 C0.73424805 44.86838867 -0.11524414 45.5309668 -0.99047852 46.21362305 C-10.52455619 54.12705352 -18.97118921 65.88265494 -21.41625977 78.20581055 C-23.11508857 96.61637382 -19.49305596 114.27957789 -8.79516602 129.5144043 C-0.47622981 138.82912339 11.75073446 142.19042809 23.58374023 144.20581055 C64.5143085 151.7561941 107.08615024 166.06990506 132.30834961 201.33666992 C143.85974013 218.26573689 147.7651634 236.01555277 147.82397461 256.30541992 C147.83362154 258.30619272 147.86479742 260.30682407 147.89624023 262.30737305 C148.01070182 291.38061576 136.42855339 319.85784794 116.59545898 341.0378418 C114.44646472 343.28976739 114.44646472 343.28976739 112.20874023 346.26831055 C83.28336883 378.63717855 34.46031621 391.1815641 -7.11364746 394.02478027 C-16.38944396 394.53322626 -25.6794337 394.49899597 -34.96630859 394.46655273 C-38.58326166 394.45587108 -42.19971259 394.46650113 -45.81665039 394.47924805 C-58.12454764 394.48685046 -70.35947154 394.15545583 -82.63891602 393.29174805 C-84.35874947 393.1708078 -84.35874947 393.1708078 -86.11332703 393.04742432 C-94.3814609 392.40808715 -102.37614071 391.25686133 -110.41625977 389.20581055 C-110.41625977 388.54581055 -110.41625977 387.88581055 -110.41625977 387.20581055 C-109.80331055 387.0356543 -109.19036133 386.86549805 -108.55883789 386.69018555 C-95.44884482 383.00330642 -83.27165588 378.94764194 -71.41625977 372.20581055 C-70.4146582 371.65280273 -69.41305664 371.09979492 -68.38110352 370.5300293 C-54.53658031 362.37130184 -44.12032993 350.02148529 -39.41625977 334.58081055 C-36.10164168 318.41933938 -37.71961317 302.65796501 -46.65844727 288.64331055 C-56.33417819 275.22629699 -69.00144477 266.21583991 -82.66625977 257.33081055 C-92.91013655 250.65484392 -102.8555431 243.83899095 -112.41625977 236.20581055 C-113.44638184 235.38814209 -113.44638184 235.38814209 -114.49731445 234.55395508 C-126.44639707 224.94776316 -135.58937777 214.38718401 -143.41625977 201.20581055 C-144.43719727 199.51198242 -144.43719727 199.51198242 -145.47875977 197.78393555 C-161.49186972 170.16093259 -167.28013646 136.77850781 -159.53833008 105.68261719 C-154.33859555 86.25137332 -145.44560214 69.44984251 -132.41625977 54.20581055 C-131.69180664 53.34084961 -130.96735352 52.47588867 -130.22094727 51.5847168 C-109.49765549 27.48881086 -79.57301016 13.09206521 -49.29125977 5.33081055 C-48.18476074 5.04439697 -47.07826172 4.7579834 -45.93823242 4.46289062 C-30.74273543 0.77223851 -15.58385886 -0.11680689 0 0 Z " fill="#E9B208" transform="translate(278.416259765625,49.794189453125)"/>
<path d="M0 0 C0.99 0.495 0.99 0.495 2 1 C1.38253906 1.52207031 0.76507813 2.04414062 0.12890625 2.58203125 C-6.34706311 8.21030903 -11.79859514 14.18537747 -17 21 C-17.58265625 21.74378906 -18.1653125 22.48757812 -18.765625 23.25390625 C-28.08528653 35.77447957 -34.88375695 49.93516485 -38.52832031 65.08447266 C-38.95885042 66.83288838 -39.45652137 68.56442078 -39.9609375 70.29296875 C-47.89740196 100.18213079 -39.24429682 133.98615438 -24.27734375 160.20703125 C-8.30416802 187.16048812 15.30469757 203.24987466 41.11230469 219.99194336 C44.77972392 222.39635255 48.04499478 224.71149026 51 228 C32.83064644 227.92185224 14.48399507 221.14319018 -2 214 C-2.71881348 213.69336426 -3.43762695 213.38672852 -4.17822266 213.07080078 C-32.25883574 200.96633092 -54.6126424 182.2919226 -67 154 C-67.42023438 153.05640625 -67.84046875 152.1128125 -68.2734375 151.140625 C-78.73934179 125.1725918 -75.47482304 92.40421351 -65 67 C-59.78031128 55.24110392 -53.34208902 44.783602 -45 35 C-44.22527344 34.08605469 -43.45054688 33.17210937 -42.65234375 32.23046875 C-32.29342195 20.37900934 -19.81209845 11.19986583 -6.25 3.3125 C-5.65364746 2.96131104 -5.05729492 2.61012207 -4.44287109 2.24829102 C-2.99774161 1.43190855 -1.50194689 0.70642417 0 0 Z " fill="#10756D" transform="translate(159,89)"/>
<path d="M0 0 C1.42940115 0.12696407 2.85909475 0.25067885 4.2890625 0.37109375 C7.73854255 0.6685164 11.18202613 1.00910793 14.625 1.375 C11.89915176 2.81504174 9.261595 3.87303053 6.30859375 4.75 C-16.36619046 11.72198879 -38.30977605 21.63469572 -50.6015625 42.96875 C-57.71743041 56.63623198 -59.55064879 70.67382935 -55.28515625 85.6328125 C-51.31829545 97.58447035 -44.64118082 108.23510614 -34.6875 116.0625 C-29.47882514 120.16734973 -29.47882514 120.16734973 -28.375 122.375 C-41.78809098 121.85611834 -53.77898337 117.35667278 -64 108.5 C-76.27378215 95.23733492 -79.12889937 76.40742317 -78.71875 59.02734375 C-77.30000827 43.95321288 -66.84064054 30.66828507 -55.6953125 21.06640625 C-50.22853938 16.79224895 -44.51607658 13.12807383 -38.5 9.6875 C-37.9011499 9.34323975 -37.3022998 8.99897949 -36.68530273 8.64428711 C-34.60815443 7.4959958 -32.49886511 6.43455396 -30.375 5.375 C-29.36840332 4.83842773 -28.36180664 4.30185547 -27.32470703 3.74902344 C-17.67152324 -0.98080328 -10.45944092 -1.12522705 0 0 Z " fill="#10766C" transform="translate(334.375,72.625)"/>
<path d="M0 0 C0.99 0.495 0.99 0.495 2 1 C-21.4066195 20.29513318 -48.14846335 33.22788783 -78 39 C-78.74620605 39.15098145 -79.49241211 39.30196289 -80.26123047 39.45751953 C-93.3684182 42.00529957 -106.44423185 42.28913051 -119.75 42.3125 C-120.97774139 42.31787781 -120.97774139 42.31787781 -122.23028564 42.32336426 C-138.28295374 42.36116836 -153.93071355 41.25001475 -169.5 37.125 C-170.4796875 36.88136719 -171.459375 36.63773437 -172.46875 36.38671875 C-178.87343996 34.74296189 -184.92505114 32.60663879 -191 30 C-187.74902304 26.74902304 -183.52979431 26.08086775 -179.1875 24.8125 C-178.32318359 24.52697266 -177.45886719 24.24144531 -176.56835938 23.94726562 C-168.24675786 21.5403844 -160.53870955 22.11787326 -152.01977539 22.6652832 C-141.80215972 23.29688365 -131.55936975 23.18597989 -121.32617188 23.18530273 C-117.63660191 23.18749311 -113.94733017 23.20574531 -110.2578125 23.22460938 C-90.62281023 23.27288343 -71.08512237 22.70463584 -51.875 18.3125 C-50.70541748 18.05194824 -49.53583496 17.79139648 -48.33081055 17.52294922 C-33.27549391 14.05583856 -18.93952093 9.4086633 -5.1496582 2.40087891 C-3.45830768 1.54861397 -1.73175992 0.76683096 0 0 Z " fill="#10766C" transform="translate(357,420)"/>
</svg>
