<?xml version="1.0" standalone="no"?>
<!DOCTYPE svg PUBLIC "-//W3C//DTD SVG 20010904//EN"
 "http://www.w3.org/TR/2001/REC-SVG-20010904/DTD/svg10.dtd">
<svg version="1.0" xmlns="http://www.w3.org/2000/svg"
 width="128.000000pt" height="128.000000pt" viewBox="0 0 128.000000 128.000000"
 preserveAspectRatio="xMidYMid meet">

<g transform="translate(0.000000,128.000000) scale(0.100000,-0.100000)"
fill="#000000" stroke="none">
<path d="M755 1079 c-84 -42 -122 -100 -111 -171 9 -55 31 -83 81 -104 l40
-16 -26 29 c-38 40 -49 66 -49 111 0 52 34 101 93 133 26 14 44 28 40 32 -10
11 -25 8 -68 -14z"/>
<path d="M342 1017 c-50 -38 -97 -104 -112 -156 -16 -57 -12 -151 9 -196 32
-70 122 -137 216 -159 17 -4 39 -9 50 -12 11 -3 -10 15 -47 40 -70 48 -101 82
-139 156 -20 37 -24 60 -24 130 0 91 15 133 70 199 33 39 31 39 -23 -2z"/>
<path d="M805 193 c-27 -11 -89 -17 -195 -20 -177 -6 -211 -15 -128 -33 112
-25 294 2 364 55 24 18 10 18 -41 -2z"/>
</g>
</svg>
