<?xml version="1.0" encoding="UTF-8"?>
<svg version="1.1" xmlns="http://www.w3.org/2000/svg" width="500" height="110">
<path d="M0 0 C165 0 330 0 500 0 C500 36.3 500 72.6 500 110 C335 110 170 110 0 110 C0 73.7 0 37.4 0 0 Z " fill="#134E4A" transform="translate(0,0)"/>
<path d="M0 0 C0.67611328 -0.00386719 1.35222656 -0.00773437 2.04882812 -0.01171875 C7.0590035 -0.00174825 7.0590035 -0.00174825 9.3125 1.125 C9.3125 1.785 9.3125 2.445 9.3125 3.125 C8.62542969 3.43953125 7.93835938 3.7540625 7.23046875 4.078125 C5.87888672 4.72007813 5.87888672 4.72007813 4.5 5.375 C3.16001953 6.00148438 3.16001953 6.00148438 1.79296875 6.640625 C-0.86207589 8.22947061 -2.15720222 9.45074192 -3.6875 12.125 C-4.29880827 15.91656675 -3.90189799 19.48180603 -2.6875 23.125 C-0.42879383 24.01530822 -0.42879383 24.01530822 2.3125 24.5625 C10.74218247 26.6644468 18.99477864 29.32002423 24.125 36.75 C26.42562358 43.28861437 26.14533318 49.00994384 23.375 55.375 C19.27684734 62.72858661 12.65373428 66.0296773 4.87646484 68.53393555 C0.19243114 69.61373421 -4.46958937 69.43588585 -9.25 69.3125 C-10.25869141 69.29896484 -11.26738281 69.28542969 -12.30664062 69.27148438 C-14.76750621 69.23649576 -17.22720335 69.18741158 -19.6875 69.125 C-19.6875 68.465 -19.6875 67.805 -19.6875 67.125 C-19.14480469 66.95484375 -18.60210937 66.7846875 -18.04296875 66.609375 C-14.87929906 65.53771752 -12.25757633 64.6060019 -9.6875 62.4375 C-8.22296921 59.05077255 -7.84314113 55.69524182 -8.6875 52.125 C-11.31915037 48.19889516 -14.2744791 45.84076384 -18.1875 43.25 C-23.9766849 39.16669492 -26.44407137 35.85528589 -28.6875 29.125 C-29.52226988 21.4958373 -29.49023665 15.28610095 -24.66796875 9.06640625 C-17.31103989 1.85458447 -10.03751396 -0.01966212 0 0 Z " fill="#E7B109" transform="translate(69.6875,18.875)"/>
<path d="M0 0 C1.32 0.33 2.64 0.66 4 1 C4.66 0.67 5.32 0.34 6 0 C9.49461983 -0.37984998 11.29858698 -0.52289455 14.1640625 1.61328125 C16.5544346 4.72076498 16.535657 6.61338696 16.5 10.5 C16.5103125 11.6240625 16.520625 12.748125 16.53125 13.90625 C15.89851847 17.59098069 14.96186858 18.78261556 12 21 C7.89222251 21.50299316 6.49124017 21.32749345 3 19 C3 22.3 3 25.6 3 29 C2.01 29 1.02 29 0 29 C0 19.43 0 9.86 0 0 Z " fill="#B4EADD" transform="translate(155,31)"/>
<path d="M0 0 C1.32 0 2.64 0 4 0 C4 9.24 4 18.48 4 28 C2.68 28 1.36 28 0 28 C-0.33 27.34 -0.66 26.68 -1 26 C-1.33 26.66 -1.66 27.32 -2 28 C-4.375 28.125 -4.375 28.125 -7 28 C-9 26 -9 26 -9.1953125 22.0859375 C-9.18200376 20.51550649 -9.15813602 18.94513779 -9.125 17.375 C-9.11597656 16.57320312 -9.10695312 15.77140625 -9.09765625 14.9453125 C-9.07406223 12.96341477 -9.03819065 10.98167019 -9 9 C-9.66 9 -10.32 9 -11 9 C-11 8.34 -11 7.68 -11 7 C-10.34 7 -9.68 7 -9 7 C-8.67 5.68 -8.34 4.36 -8 3 C-7.34 3 -6.68 3 -6 3 C-6 4.32 -6 5.64 -6 7 C-4.68 7 -3.36 7 -2 7 C-2 7.66 -2 8.32 -2 9 C-1.34 9 -0.68 9 0 9 C0 6.03 0 3.06 0 0 Z " fill="#296769" transform="translate(198,24)"/>
<path d="M0 0 C3.125 1.875 3.125 1.875 5 4 C5 4.66 5 5.32 5 6 C0.125 5.125 0.125 5.125 -1 4 C-2.51928038 3.92820036 -4.04167482 3.91607993 -5.5625 3.9375 C-6.38878906 3.94652344 -7.21507812 3.95554687 -8.06640625 3.96484375 C-9.02353516 3.98224609 -9.02353516 3.98224609 -10 4 C-10 5.65 -10 7.3 -10 9 C-9.40832031 9.18175781 -8.81664062 9.36351562 -8.20703125 9.55078125 C1.70334928 12.70334928 1.70334928 12.70334928 5 16 C5.45156126 19.98879116 5.62562234 22.15864582 3.1875 25.4375 C-1.52191396 27.74603626 -5.85081418 27.7797118 -11 27 C-14.1875 25.1875 -14.1875 25.1875 -16 23 C-16 22.01 -16 21.02 -16 20 C-13.13275314 20.57344937 -12.1385485 20.8614515 -10 23 C-7.85856259 23.28062326 -7.85856259 23.28062326 -5.5 23.1875 C-4.30890625 23.17783203 -4.30890625 23.17783203 -3.09375 23.16796875 C-0.94163609 23.12675836 -0.94163609 23.12675836 1 22 C0.89386164 19.54775306 0.89386164 19.54775306 0 17 C-2.7786959 15.44719935 -5.53972413 14.86041617 -8.625 14.0625 C-13.45707277 12.54129191 -13.45707277 12.54129191 -15 10 C-15.5 7.0625 -15.5 7.0625 -15 4 C-11.08347282 -0.96093443 -5.85901087 -0.97970346 0 0 Z " fill="#B7ECE2" transform="translate(146,25)"/>
<path d="M0 0 C0.99 0.33 1.98 0.66 3 1 C2.51402344 1.69609375 2.02804688 2.3921875 1.52734375 3.109375 C-1.4488059 8.74198559 -0.78763914 15.50288224 0.5859375 21.6015625 C2.96584715 27.95526623 7.46904483 31.32451483 13 35 C10.40323049 35.97378856 9.23157127 36.07793264 6.5625 35.1796875 C0.07512942 31.8766665 -4.0195733 28.80342129 -7 22 C-8.08875722 14.47767736 -6.24044602 8.07261168 -1.8125 2 C-1.214375 1.34 -0.61625 0.68 0 0 Z " fill="#177668" transform="translate(42,29)"/>
<path d="M0 0 C1.32 0 2.64 0 4 0 C5.98 4.62 7.96 9.24 10 14 C11.65 9.38 13.3 4.76 15 0 C16.32 0.33 17.64 0.66 19 1 C17.60147731 4.9233844 16.17809357 8.83729224 14.75 12.75 C14.35425781 13.86117187 13.95851562 14.97234375 13.55078125 16.1171875 C13.15761719 17.18710937 12.76445312 18.25703125 12.359375 19.359375 C12.00327148 20.34389648 11.64716797 21.32841797 11.28027344 22.34277344 C9.88462614 25.23946016 8.47799371 26.9642917 6 29 C3.25 29.25 3.25 29.25 1 29 C1 28.01 1 27.02 1 26 C1.804375 25.773125 2.60875 25.54625 3.4375 25.3125 C6.20848773 24.27285279 6.20848773 24.27285279 6.74975586 21.70825195 C7.02464243 18.73330877 6.6389322 17.12145672 5.56640625 14.35546875 C5.24736328 13.51435547 4.92832031 12.67324219 4.59960938 11.80664062 C4.25736328 10.94232422 3.91511719 10.07800781 3.5625 9.1875 C3.05493164 7.86202148 3.05493164 7.86202148 2.53710938 6.50976562 C1.70256229 4.33524152 0.85663867 2.16589511 0 0 Z " fill="#B7EBDC" transform="translate(203,31)"/>
<path d="M0 0 C3 -0.3125 3 -0.3125 6 0 C8 2 8 2 8.265625 4.27734375 C8.26046875 5.15519531 8.2553125 6.03304687 8.25 6.9375 C8.25515625 7.81277344 8.2603125 8.68804687 8.265625 9.58984375 C8 12 8 12 6 15 C3 15.375 3 15.375 0 15 C-2.08133467 11.877998 -2.2737822 11.06733011 -2.25 7.5 C-2.25773438 6.33984375 -2.25773438 6.33984375 -2.265625 5.15625 C-2 3 -2 3 0 0 Z " fill="#1C5352" transform="translate(160,34)"/>
<path d="M0 0 C2.14576637 -0.02685938 4.29162645 -0.04633088 6.4375 -0.0625 C7.63246094 -0.07410156 8.82742188 -0.08570312 10.05859375 -0.09765625 C13 0 13 0 14 1 C14.45459858 3.65463121 14.70243238 6.32189138 15 9 C10.05 9 5.1 9 0 9 C-0.33 8.34 -0.66 7.68 -1 7 C1.475 7.495 1.475 7.495 4 8 C2.74458443 5.48916886 1.49936512 5.12874554 -1 4 C-0.67 2.68 -0.34 1.36 0 0 Z " fill="#6E782E" transform="translate(272,71)"/>
<path d="M0 0 C1.8125 1.125 1.8125 1.125 3 3 C3.39769128 6.18153026 3.55198782 8.12844028 1.8125 10.875 C-0.65507108 12.40659584 -2.14519831 12.42822025 -5 12 C-6.8125 10.875 -6.8125 10.875 -8 9 C-8.39769128 5.81846974 -8.55198782 3.87155972 -6.8125 1.125 C-4.34492892 -0.40659584 -2.85480169 -0.42822025 0 0 Z " fill="#586D37" transform="translate(175,68)"/>
<path d="M0 0 C0.66 0 1.32 0 2 0 C2 1.32 2 2.64 2 4 C3.32 4 4.64 4 6 4 C6 4.66 6 5.32 6 6 C4.68 6 3.36 6 2 6 C2 11.28 2 16.56 2 22 C3.32 22 4.64 22 6 22 C6 22.99 6 23.98 6 25 C3.625 25.125 3.625 25.125 1 25 C-1 23 -1 23 -1.1953125 19.0859375 C-1.18200376 17.51550649 -1.15813602 15.94513779 -1.125 14.375 C-1.11597656 13.57320312 -1.10695312 12.77140625 -1.09765625 11.9453125 C-1.07406223 9.96341477 -1.03819065 7.98167019 -1 6 C-1.66 6 -2.32 6 -3 6 C-3 5.34 -3 4.68 -3 4 C-2.34 4 -1.68 4 -1 4 C-0.67 2.68 -0.34 1.36 0 0 Z " fill="#BDF7EA" transform="translate(190,27)"/>
<path d="M0 0 C0.66 0 1.32 0 2 0 C2 1.32 2 2.64 2 4 C1.18595703 4.25523438 1.18595703 4.25523438 0.35546875 4.515625 C-2.80820094 5.58728248 -5.42992367 6.5189981 -8 8.6875 C-9.94435638 13.18382413 -9.50384457 17.48846629 -8 22 C-7.67 22.66 -7.34 23.32 -7 24 C-10.65316671 22.75023244 -11.78065836 22.32901247 -14 19 C-14.43157552 14.54038632 -14.65440877 12.15175944 -12.4375 8.25 C-8.80441121 4.89637958 -5.11942854 2 0 2 C0 1.34 0 0.68 0 0 Z " fill="#227761" transform="translate(79,20)"/>
<path d="M0 0 C0.99 0 1.98 0 3 0 C3 3.96 3 7.92 3 12 C-3.93359375 12.09765625 -3.93359375 12.09765625 -6 12 C-7 11 -7 11 -7.125 8.0625 C-7 5 -7 5 -6 3 C-3.03 3.495 -3.03 3.495 0 4 C0 2.68 0 1.36 0 0 Z " fill="#526B36" transform="translate(195,68)"/>
<path d="M0 0 C0.99 0 1.98 0 3 0 C3 9.24 3 18.48 3 28 C2.01 28 1.02 28 0 28 C0 18.76 0 9.52 0 0 Z " fill="#C9F4D9" transform="translate(199,24)"/>
<path d="M0 0 C0.99 0 1.98 0 3 0 C3 9.24 3 18.48 3 28 C2.01 28 1.02 28 0 28 C0 18.76 0 9.52 0 0 Z " fill="#C9F4D9" transform="translate(175,24)"/>
<path d="M0 0 C-1.24735567 0.6509259 -2.49801832 1.29551669 -3.75 1.9375 C-4.44609375 2.29714844 -5.1421875 2.65679687 -5.859375 3.02734375 C-10.26328687 5.0283913 -14.10521968 5.13531437 -18.9375 5.125 C-20.14277344 5.12757812 -21.34804688 5.13015625 -22.58984375 5.1328125 C-25.53222592 5.01821801 -28.14489223 4.68262539 -31 4 C-31 3.34 -31 2.68 -31 2 C-30.3702124 1.98018066 -29.7404248 1.96036133 -29.09155273 1.93994141 C-26.2064864 1.84401103 -23.3220777 1.7346103 -20.4375 1.625 C-18.9515332 1.57859375 -18.9515332 1.57859375 -17.43554688 1.53125 C-12.89351203 1.3501722 -3.64488671 -1.82244336 0 0 Z " fill="#12746A" transform="translate(81,86)"/>
<path d="M0 0 C0.66 0 1.32 0 2 0 C2 0.99 2 1.98 2 3 C3.65 3.33 5.3 3.66 7 4 C7.04241723 6.33294775 7.04092937 8.66702567 7 11 C6.67 11.33 6.34 11.66 6 12 C4.02 12 2.04 12 0 12 C0 8.04 0 4.08 0 0 Z " fill="#B69C1D" transform="translate(297,68)"/>
<path d="M0 0 C0.99 1.32 1.98 2.64 3 4 C5.87376148 7.6106234 8.277245 10.20793375 12 13 C8.04 13 4.08 13 0 13 C0 8.71 0 4.42 0 0 Z " fill="#000000" transform="translate(0,97)"/>
<path d="M0 0 C0.66 0 1.32 0 2 0 C2 0.99 2 1.98 2 3 C2.66 3 3.32 3 4 3 C3.7834375 4.30710938 3.7834375 4.30710938 3.5625 5.640625 C2.33697636 13.50440167 1.73775881 21.04535065 2 29 C1.34 29 0.68 29 0 29 C0 19.43 0 9.86 0 0 Z " fill="#C9F9EE" transform="translate(155,31)"/>
<path d="M0 0 C0.99 0 1.98 0 3 0 C3 6.93 3 13.86 3 21 C2.01 21 1.02 21 0 21 C0 14.07 0 7.14 0 0 Z " fill="#C9F2D7" transform="translate(182,31)"/>
<path d="M0 0 C3.96 0 7.92 0 12 0 C12 4.29 12 8.58 12 13 C11.01 11.68 10.02 10.36 9 9 C6.12623852 5.3893766 3.722755 2.79206625 0 0 Z " fill="#000000" transform="translate(488,0)"/>
<path d="M0 0 C2.5 0.125 2.5 0.125 3.5 1.125 C3.625 4.625 3.625 4.625 3.5 8.125 C2.5 9.125 2.5 9.125 -0.0625 9.1875 C-0.866875 9.166875 -1.67125 9.14625 -2.5 9.125 C-3.86623674 6.39252652 -3.628426 4.14301098 -3.5 1.125 C-2.5 0.125 -2.5 0.125 0 0 Z " fill="#BA991F" transform="translate(231.5,70.875)"/>
<path d="M0 0 C2.5 0.125 2.5 0.125 3.5 1.125 C3.625 4.625 3.625 4.625 3.5 8.125 C2.5 9.125 2.5 9.125 -0.0625 9.1875 C-0.866875 9.166875 -1.67125 9.14625 -2.5 9.125 C-3.86623674 6.39252652 -3.628426 4.14301098 -3.5 1.125 C-2.5 0.125 -2.5 0.125 0 0 Z " fill="#BA991F" transform="translate(143.5,70.875)"/>
<path d="M0 0 C0.33 0 0.66 0 1 0 C1 3.96 1 7.92 1 12 C-2.96 12 -6.92 12 -11 12 C-9.68 11.01 -8.36 10.02 -7 9 C-3.98894452 6.20401991 -1.5626448 3.8355827 0 0 Z " fill="#000000" transform="translate(499,98)"/>
<path d="M0 0 C3.96 0 7.92 0 12 0 C10.68 0.99 9.36 1.98 8 3 C4.9710771 5.88117056 2.52134396 8.63820806 0 12 C0 8.04 0 4.08 0 0 Z " fill="#000000" transform="translate(0,0)"/>
<path d="M0 0 C1.66611905 -0.042721 3.33382885 -0.04063832 5 0 C7.04698414 2.04698414 6.70045693 6.30411241 7 9 C4.69 9 2.38 9 0 9 C-0.33 7.35 -0.66 5.7 -1 4 C0.65 3.67 2.3 3.34 4 3 C4 2.34 4 1.68 4 1 C2.35 1.33 0.7 1.66 -1 2 C-0.67 1.34 -0.34 0.68 0 0 Z " fill="#9A8C24" transform="translate(289,71)"/>
<path d="M0 0 C1.66611905 -0.042721 3.33382885 -0.04063832 5 0 C7.04698414 2.04698414 6.70045693 6.30411241 7 9 C4.69 9 2.38 9 0 9 C-0.33 7.35 -0.66 5.7 -1 4 C0.65 3.67 2.3 3.34 4 3 C4 2.34 4 1.68 4 1 C2.35 1.33 0.7 1.66 -1 2 C-0.67 1.34 -0.34 0.68 0 0 Z " fill="#9A8C24" transform="translate(280,71)"/>
<path d="M0 0 C2.86724686 0.57344937 3.8614515 0.8614515 6 3 C8.32275177 3.40047444 10.65739357 3.7397104 13 4 C13 4.66 13 5.32 13 6 C13.99 6.33 14.98 6.66 16 7 C6.09790704 7.62430008 6.09790704 7.62430008 1.8125 5.1875 C0 3 0 3 0 0 Z " fill="#B8F0E8" transform="translate(130,45)"/>
<path d="M0 0 C0 1.32 0 2.64 0 4 C-1.65 4 -3.3 4 -5 4 C-4.67 4.66 -4.34 5.32 -4 6 C-1.97536745 6.65213292 -1.97536745 6.65213292 0 7 C-2.375 7.625 -2.375 7.625 -5 8 C-7 6 -7 6 -7.125 2.875 C-7.08375 1.92625 -7.0425 0.9775 -7 0 C-4.3333581 -1.33332095 -2.83319697 -0.67102033 0 0 Z " fill="#9D8D23" transform="translate(207,72)"/>
<path d="M0 0 C0.66 0 1.32 0 2 0 C2 1.65 2 3.3 2 5 C3.98 5 5.96 5 8 5 C8 3.35 8 1.7 8 0 C8.33 0 8.66 0 9 0 C9 3.96 9 7.92 9 12 C8.67 12 8.34 12 8 12 C8 10.02 8 8.04 8 6 C6.02 6 4.04 6 2 6 C2 7.98 2 9.96 2 12 C1.34 12 0.68 12 0 12 C0 8.04 0 4.08 0 0 Z " fill="#BAA413" transform="translate(255,68)"/>
<path d="M0 0 C0.66 0 1.32 0 2 0 C2 2.64 2 5.28 2 8 C2.66 7.67 3.32 7.34 4 7 C4.40729228 4.67843403 4.74438677 2.3431213 5 0 C5.66 0 6.32 0 7 0 C7 2.97 7 5.94 7 9 C5.00045254 9.04254356 2.99958364 9.04080783 1 9 C0 8 0 8 -0.09765625 6.15234375 C-0.06510417 4.1015625 -0.03255208 2.05078125 0 0 Z " fill="#A5951F" transform="translate(237,71)"/>
<path d="M0 0 C0.66 0 1.32 0 2 0 C2 2.64 2 5.28 2 8 C2.66 7.67 3.32 7.34 4 7 C4.40729228 4.67843403 4.74438677 2.3431213 5 0 C5.66 0 6.32 0 7 0 C7 2.97 7 5.94 7 9 C5.00045254 9.04254356 2.99958364 9.04080783 1 9 C0 8 0 8 -0.09765625 6.15234375 C-0.06510417 4.1015625 -0.03255208 2.05078125 0 0 Z " fill="#A5951F" transform="translate(149,71)"/>
<path d="M0 0 C0.33 0 0.66 0 1 0 C1.08636719 0.69867188 1.17273438 1.39734375 1.26171875 2.1171875 C1.68204824 4.83968863 2.13743453 7.38196209 3 10 C5.45748398 11.75568004 5.45748398 11.75568004 8 12 C8 12.33 8 12.66 8 13 C5.69 12.67 3.38 12.34 1 12 C1 15.3 1 18.6 1 22 C0.67 22 0.34 22 0 22 C-1.33257403 7.40318907 -1.33257403 7.40318907 0 0 Z " fill="#C6ECC8" transform="translate(157,38)"/>
<path d="M0 0 C2.97 0.495 2.97 0.495 6 1 C6 1.66 6 2.32 6 3 C4.35 2.67 2.7 2.34 1 2 C1 3.65 1 5.3 1 7 C2.65 6.67 4.3 6.34 6 6 C5.67 6.99 5.34 7.98 5 9 C3.33388095 9.042721 1.66617115 9.04063832 0 9 C-1 8 -1 8 -1.125 5.0625 C-1 2 -1 2 0 0 Z " fill="#9D8C25" transform="translate(189,71)"/>
<path d="M0 0 C4.67692308 1.47692308 4.67692308 1.47692308 6.3125 4.125 C6.539375 4.74375 6.76625 5.3625 7 6 C2.91621717 5.25749403 -1.01939223 4.17076699 -5 3 C-4.360625 2.690625 -3.72125 2.38125 -3.0625 2.0625 C-1.06389179 1.1654837 -1.06389179 1.1654837 0 0 Z " fill="#B7E6D7" transform="translate(144,25)"/>
<path d="M0 0 C0.33 0 0.66 0 1 0 C1.36190476 5.42857143 1.36190476 5.42857143 -0.1875 7.875 C-2.56036279 9.34781139 -4.25913944 9.22223194 -7 9 C-7 8.34 -7 7.68 -7 7 C-6.21625 6.54625 -5.4325 6.0925 -4.625 5.625 C-1.8764051 3.92348887 -1.12078968 2.95480916 0 0 Z " fill="#C5F5E8" transform="translate(150,42)"/>
<path d="M0 0 C0.66 0.33 1.32 0.66 2 1 C1.42655063 3.86724686 1.1385485 4.8614515 -1 7 C-3.625 7.125 -3.625 7.125 -6 7 C-6 6.01 -6 5.02 -6 4 C-4.7934375 3.566875 -4.7934375 3.566875 -3.5625 3.125 C-0.8673532 2.26737432 -0.8673532 2.26737432 0 0 Z " fill="#ACE8E2" transform="translate(210,53)"/>
<path d="M0 0 C0.99 0 1.98 0 3 0 C2.625 2.4375 2.625 2.4375 2 5 C-0.70879335 6.35439668 -3.00933268 6.06501451 -6 6 C-6 5.01 -6 4.02 -6 3 C-5.195625 2.87625 -4.39125 2.7525 -3.5625 2.625 C-2.716875 2.41875 -1.87125 2.2125 -1 2 C-0.67 1.34 -0.34 0.68 0 0 Z " fill="#AFE4DB" transform="translate(167,46)"/>
<path d="M0 0 C1.32 0.33 2.64 0.66 4 1 C4 2.65 4 4.3 4 6 C2.68 6.33 1.36 6.66 0 7 C0 4.69 0 2.38 0 0 Z " fill="#245B3C" transform="translate(230,72)"/>
<path d="M0 0 C1.32 0.33 2.64 0.66 4 1 C4 2.65 4 4.3 4 6 C2.68 6.33 1.36 6.66 0 7 C0 4.69 0 2.38 0 0 Z " fill="#245B3C" transform="translate(142,72)"/>
<path d="M0 0 C0.99 0.33 1.98 0.66 3 1 C3 2.65 3 4.3 3 6 C1.68 6 0.36 6 -1 6 C-1.042721 4.33388095 -1.04063832 2.66617115 -1 1 C-0.67 0.67 -0.34 0.34 0 0 Z " fill="#20593D" transform="translate(300,72)"/>
<path d="M0 0 C0.33 0 0.66 0 1 0 C1 4.29 1 8.58 1 13 C0.01 12.67 -0.98 12.34 -2 12 C-1.34 8.04 -0.68 4.08 0 0 Z " fill="#C8F3DD" transform="translate(170,35)"/>
<path d="M0 0 C1.32 0.33 2.64 0.66 4 1 C3.67 1.33 3.34 1.66 3 2 C2.63239269 4.32817964 2.29758419 6.6618385 2 9 C1.34 9 0.68 9 0 9 C0 6.03 0 3.06 0 0 Z " fill="#A99720" transform="translate(246,71)"/>
<path d="M0 0 C1.32 0.33 2.64 0.66 4 1 C3.67 1.33 3.34 1.66 3 2 C2.63239269 4.32817964 2.29758419 6.6618385 2 9 C1.34 9 0.68 9 0 9 C0 6.03 0 3.06 0 0 Z " fill="#A99720" transform="translate(183,71)"/>
<path d="M0 0 C1.32 0.33 2.64 0.66 4 1 C3.67 1.33 3.34 1.66 3 2 C2.63239269 4.32817964 2.29758419 6.6618385 2 9 C1.34 9 0.68 9 0 9 C0 6.03 0 3.06 0 0 Z " fill="#A99720" transform="translate(158,71)"/>
<path d="M0 0 C0.33 0.66 0.66 1.32 1 2 C2.32 2 3.64 2 5 2 C5 2.99 5 3.98 5 5 C3.35 5 1.7 5 0 5 C-0.5625 3.0625 -0.5625 3.0625 -1 1 C-0.67 0.67 -0.34 0.34 0 0 Z " fill="#BFF0E4" transform="translate(191,47)"/>
<path d="M0 0 C1.32 0 2.64 0 4 0 C4 0.66 4 1.32 4 2 C4.99 2.33 5.98 2.66 7 3 C3.37 3 -0.26 3 -4 3 C-2.68 2.67 -1.36 2.34 0 2 C0 1.34 0 0.68 0 0 Z " fill="#ACDED5" transform="translate(139,49)"/>
<path d="M0 0 C1.98 0.495 1.98 0.495 4 1 C3.34 2.65 2.68 4.3 2 6 C1.67 5.34 1.34 4.68 1 4 C0.34 4 -0.32 4 -1 4 C-0.67 2.68 -0.34 1.36 0 0 Z " fill="#B1E6D7" transform="translate(218,31)"/>
</svg>
