<?xml version="1.0" encoding="UTF-8"?>
<svg version="1.1" xmlns="http://www.w3.org/2000/svg" width="256" height="256">
<path d="M0 0 C-3.56095555 1.87501642 -7.1122886 2.95330847 -11 4 C-10.28972656 4.04898438 -9.57945312 4.09796875 -8.84765625 4.1484375 C-7.46900391 4.26058594 -7.46900391 4.26058594 -6.0625 4.375 C-5.14597656 4.44460937 -4.22945312 4.51421875 -3.28515625 4.5859375 C-2.53105469 4.72257812 -1.77695313 4.85921875 -1 5 C-0.67 5.66 -0.34 6.32 0 7 C-0.88300781 7.21914063 -1.76601562 7.43828125 -2.67578125 7.6640625 C-13.4132699 10.50125069 -26.06580127 14.403754 -32.43359375 24.20703125 C-36.79929393 31.86246584 -37.89480824 38.16251187 -37 47 C-35.02203968 53.09802704 -31.89846823 57.83630201 -27 62 C-26.30519531 62.65742187 -25.61039062 63.31484375 -24.89453125 63.9921875 C-21.13283034 66.60151849 -17.61003998 67.28904207 -13.1875 68.25 C3.1316039 72.18257974 19.03114754 80.00067849 29 94 C37.86162004 108.76256057 38.79560956 123.54277317 35.09765625 140.2265625 C29.75908297 158.57909554 16.28023965 171.34471583 1 182 C-0.52753906 183.06927734 -0.52753906 183.06927734 -2.0859375 184.16015625 C-25.24173585 199.93718163 -52.59724331 204.05897047 -80 199 C-84.73815503 197.92790471 -89.45613035 196.72586147 -94 195 C-94.33 194.34 -94.66 193.68 -95 193 C-91.535 192.01 -91.535 192.01 -88 191 C-90.31 190.34 -92.62 189.68 -95 189 C-95 188.34 -95 187.68 -95 187 C-93.67548828 186.67128906 -93.67548828 186.67128906 -92.32421875 186.3359375 C-79.64174867 182.98482296 -68.1388147 178.3038693 -60.62109375 166.91015625 C-57.05643922 160.04167557 -56.94142268 152.79514493 -58.58984375 145.328125 C-60.91504216 138.42753618 -64.75398047 132.82549607 -71 129 C-75.19293767 127.55885123 -79.50396338 126.69489645 -83.84106445 125.8046875 C-100.77081864 122.30782425 -116.6849253 114.33276244 -127 100 C-135.92577097 85.30925447 -136.76962896 70.39972006 -133.1015625 53.7734375 C-127.26137898 33.76770248 -113.93184107 21.58939703 -96.3203125 11.87890625 C-93.53376071 10.30204577 -90.930984 8.64731585 -88.3125 6.8125 C-64.98016139 -9.01403115 -25.47292337 -13.20569975 0 0 Z " fill="#E9B208" transform="translate(177,31)"/>
<path d="M0 0 C0.66 0.33 1.32 0.66 2 1 C1.3709375 1.55945312 0.741875 2.11890625 0.09375 2.6953125 C-11.48901455 13.5454323 -18.98665093 27.02580947 -20.23828125 43.05078125 C-20.64554753 60.94906264 -15.47147312 77.43099447 -3.9375 91.25 C1.97604347 97.39885748 9.01962389 102.15461962 16 107 C17.051875 107.7425 18.10375 108.485 19.1875 109.25 C21.45082587 110.84461596 23.72057165 112.42853528 26 114 C22.07507533 115.50653674 18.66668232 114.51191599 14.75 113.5 C13.69969604 113.22978027 13.69969604 113.22978027 12.62817383 112.95410156 C-4.62694317 108.26129538 -21.19590539 99.84460115 -30.75390625 84.11328125 C-38.72188453 69.11812212 -38.7216412 53.17413261 -34 37 C-27.49296321 20.64633611 -17.08621588 9.25175995 -1.8125 0.71484375 C-1.214375 0.47894531 -0.61625 0.24304687 0 0 Z " fill="#11766C" transform="translate(79,44)"/>
<path d="M0 0 C0.83595703 0.00902344 1.67191406 0.01804688 2.53320312 0.02734375 C4.58475969 0.05079011 6.63616777 0.08665734 8.6875 0.125 C9.1825 1.115 9.1825 1.115 9.6875 2.125 C8.80449219 2.34414063 7.92148438 2.56328125 7.01171875 2.7890625 C-3.7257699 5.62625069 -16.37830127 9.528754 -22.74609375 19.33203125 C-27.11179393 26.98746584 -28.20730824 33.28751187 -27.3125 42.125 C-25.30872991 48.30259824 -22.14928468 52.79735055 -17.3125 57.125 C-16.28436389 58.43675986 -15.27165568 59.7619893 -14.3125 61.125 C-20.28727592 61.62289799 -24.36410465 60.57623841 -29.3125 57.125 C-35.76512477 51.41938568 -38.71121037 45.50282632 -39.66015625 37.015625 C-40.09577898 27.49894376 -37.70392351 20.57678813 -31.3125 13.5 C-22.31899126 5.16020445 -12.24456386 -0.25126966 0 0 Z " fill="#12776C" transform="translate(167.3125,35.875)"/>
<path d="M0 0 C0.99 0.495 0.99 0.495 2 1 C-16.43843715 17.38972191 -41.78681918 23.38691251 -66 22 C-75.88336522 21.15345908 -85.69028018 19.53603602 -95 16 C-95.33 15.34 -95.66 14.68 -96 14 C-88.97581773 11.48469613 -82.91111423 10.61890405 -75.48046875 10.84765625 C-73.46680025 10.87589265 -71.45312823 10.9038791 -69.43945312 10.93164062 C-66.33125279 10.99315785 -63.22337445 11.06163044 -60.11547852 11.13696289 C-39.167079 11.60464341 -18.99818008 9.49909004 0 0 Z " fill="#11766C" transform="translate(178,210)"/>
</svg>
