<?xml version="1.0" encoding="UTF-8"?>
<svg version="1.1" xmlns="http://www.w3.org/2000/svg" width="500" height="110">
<path d="M0 0 C165 0 330 0 500 0 C500 36.3 500 72.6 500 110 C335 110 170 110 0 110 C0 73.7 0 37.4 0 0 Z " fill="#EFFCF8" transform="translate(0,0)"/>
<path d="M0 0 C1.31226563 -0.00257812 2.62453125 -0.00515625 3.9765625 -0.0078125 C7.375 0.125 7.375 0.125 10.375 1.125 C10.01141494 3.79507782 9.72723126 4.85019889 7.5625 6.5390625 C6.840625 6.93867188 6.11875 7.33828125 5.375 7.75 C2.28333391 9.35727894 2.28333391 9.35727894 0.375 12.125 C0.02890695 16.34733524 -0.12809738 19.01818576 1.625 22.875 C5.26180028 25.85056386 9.00108929 26.74469832 13.45703125 28.1015625 C18.50418331 29.87178183 21.17505389 32.40507724 24.25 36.8125 C26.44297968 43.26960684 26.22237968 48.97501138 23.5 55.25 C18.95502126 63.36968112 11.2774511 68.66478309 2.5234375 71.51171875 C-4.41487644 72.86322655 -12.88454893 73.37181702 -19.625 71.125 C-19.625 70.465 -19.625 69.805 -19.625 69.125 C-18.0261809 67.89469274 -16.36969415 66.73859837 -14.6875 65.625 C-11.05729314 63.41521822 -11.05729314 63.41521822 -8.625 60.125 C-8.12660601 54.83445502 -8.12660601 54.83445502 -9.78515625 49.984375 C-12.14317007 47.60132919 -14.08936981 47.11665472 -17.3125 46.25 C-24.25250453 44.09910271 -29.2542481 41.31069787 -33.625 35.4375 C-35.38379421 29.61149417 -35.77234304 24.22057651 -33.62890625 18.4375 C-29.08975907 10.00214434 -21.3484718 4.77668587 -12.625 1.125 C-8.3968522 0.03970003 -4.35400293 -0.00858778 0 0 Z " fill="#E8B30A" transform="translate(69.625,18.875)"/>
<path d="M0 0 C0.99 0 1.98 0 3 0 C3.33 0.66 3.66 1.32 4 2 C4.66 1.34 5.32 0.68 6 0 C9.51043901 -0.45788335 11.28645177 -0.53322918 14.1640625 1.6171875 C16.55617317 4.72184177 16.53564478 6.61471943 16.5 10.5 C16.5103125 11.6240625 16.520625 12.748125 16.53125 13.90625 C15.89851847 17.59098069 14.96186858 18.78261556 12 21 C7.89222251 21.50299316 6.49124017 21.32749345 3 19 C3 22.3 3 25.6 3 29 C2.01 29 1.02 29 0 29 C0 19.43 0 9.86 0 0 Z " fill="#275B5D" transform="translate(155,31)"/>
<path d="M0 0 C1.32 0 2.64 0 4 0 C4 9.24 4 18.48 4 28 C2.68 28 1.36 28 0 28 C-0.33 27.34 -0.66 26.68 -1 26 C-1.33 26.66 -1.66 27.32 -2 28 C-4.375 28.125 -4.375 28.125 -7 28 C-9 26 -9 26 -9.1953125 22.0859375 C-9.18200376 20.51550649 -9.15813602 18.94513779 -9.125 17.375 C-9.11597656 16.57320312 -9.10695312 15.77140625 -9.09765625 14.9453125 C-9.07406223 12.96341477 -9.03819065 10.98167019 -9 9 C-9.66 9 -10.32 9 -11 9 C-11 8.34 -11 7.68 -11 7 C-10.34 7 -9.68 7 -9 7 C-8.67 5.68 -8.34 4.36 -8 3 C-7.34 3 -6.68 3 -6 3 C-6 4.32 -6 5.64 -6 7 C-4.35 7.33 -2.7 7.66 -1 8 C-0.67 5.36 -0.34 2.72 0 0 Z " fill="#D5E3D8" transform="translate(198,24)"/>
<path d="M0 0 C3.125 1.875 3.125 1.875 5 4 C5 4.66 5 5.32 5 6 C0.125 5.125 0.125 5.125 -1 4 C-2.51928038 3.92820036 -4.04167482 3.91607993 -5.5625 3.9375 C-6.38878906 3.94652344 -7.21507812 3.95554687 -8.06640625 3.96484375 C-9.02353516 3.98224609 -9.02353516 3.98224609 -10 4 C-10 5.65 -10 7.3 -10 9 C-9.40832031 9.18175781 -8.81664062 9.36351562 -8.20703125 9.55078125 C-2.80150012 11.27032215 1.90926049 12.90926049 6 17 C6.5 19.3125 6.5 19.3125 6 22 C3.24424009 25.35159989 1.61614044 26.7259177 -2.671875 27.453125 C-7.23776413 27.62588837 -10.16957254 27.47220385 -14.1875 25.1875 C-16 23 -16 23 -16 20 C-13.13275314 20.57344937 -12.1385485 20.8614515 -10 23 C-7.85856259 23.28062326 -7.85856259 23.28062326 -5.5 23.1875 C-4.30890625 23.17783203 -4.30890625 23.17783203 -3.09375 23.16796875 C-0.94163609 23.12675836 -0.94163609 23.12675836 1 22 C0.505 19.525 0.505 19.525 0 17 C-1.24716797 16.61908203 -1.24716797 16.61908203 -2.51953125 16.23046875 C-4.14955078 15.71419922 -4.14955078 15.71419922 -5.8125 15.1875 C-7.43091797 14.68283203 -7.43091797 14.68283203 -9.08203125 14.16796875 C-11.84701902 13.06123335 -13.25013743 12.36500197 -15 10 C-15.5 7.0625 -15.5 7.0625 -15 4 C-11.08347282 -0.96093443 -5.85901087 -0.97970346 0 0 Z " fill="#2D5F5D" transform="translate(146,25)"/>
<path d="M0 0 C0.66 0.33 1.32 0.66 2 1 C0.73046875 2.49739583 -0.5390625 3.99479167 -1.80859375 5.4921875 C-5.47731822 10.13522897 -4.4259784 16.39773856 -4 22 C-2.46240271 29.80626314 2.3398921 33.2727286 8.734375 37.56640625 C9.48203125 38.03949219 10.2296875 38.51257813 11 39 C6.17117538 40.60960821 2.41310875 38.17218437 -2 36 C-6.45302141 33.22840991 -9.32884655 30.01346036 -11 25 C-12.17077289 17.50232311 -10.8706048 12.38446655 -6.66796875 6.10546875 C-4.70677788 3.62986716 -2.65368781 1.71709211 0 0 Z " fill="#217E70" transform="translate(46,26)"/>
<path d="M0 0 C0.99 0 1.98 0 3 0 C4.98 4.62 6.96 9.24 9 14 C10.65 9.38 12.3 4.76 14 0 C15.32 0.33 16.64 0.66 18 1 C16.60147731 4.9233844 15.17809357 8.83729224 13.75 12.75 C13.35425781 13.86117187 12.95851562 14.97234375 12.55078125 16.1171875 C12.15761719 17.18710937 11.76445312 18.25703125 11.359375 19.359375 C11.00327148 20.34389648 10.64716797 21.32841797 10.28027344 22.34277344 C8.88462614 25.23946016 7.47799371 26.9642917 5 29 C2.25 29.25 2.25 29.25 0 29 C0 28.01 0 27.02 0 26 C0.804375 25.773125 1.60875 25.54625 2.4375 25.3125 C5.15136859 24.27434107 5.15136859 24.27434107 5.84375 21.92578125 C6.06575513 17.76873523 4.64244815 14.67102422 3.0625 10.875 C0 3.33758315 0 3.33758315 0 0 Z " fill="#2E5C5B" transform="translate(204,31)"/>
<path d="M0 0 C6.08695652 0.54347826 6.08695652 0.54347826 9 2 C9 1.34 9 0.68 9 0 C9.99 0 10.98 0 12 0 C12 3.96 12 7.92 12 12 C11.01 12 10.02 12 9 12 C8.67 11.34 8.34 10.68 8 10 C7.34 10.66 6.68 11.32 6 12 C3 12.25 3 12.25 0 12 C-2 10 -2 10 -2.265625 8.125 C-2.26046875 7.42375 -2.2553125 6.7225 -2.25 6 C-2.25515625 5.29875 -2.2603125 4.5975 -2.265625 3.875 C-2 2 -2 2 0 0 Z " fill="#E3D6A9" transform="translate(169,68)"/>
<path d="M0 0 C3 -0.3125 3 -0.3125 6 0 C8 2 8 2 8.265625 4.27734375 C8.26046875 5.15519531 8.2553125 6.03304687 8.25 6.9375 C8.25515625 7.81277344 8.2603125 8.68804687 8.265625 9.58984375 C8 12 8 12 6 15 C3 15.375 3 15.375 0 15 C-2.08133467 11.877998 -2.2737822 11.06733011 -2.25 7.5 C-2.25773438 6.33984375 -2.25773438 6.33984375 -2.265625 5.15625 C-2 3 -2 3 0 0 Z " fill="#E5F6F0" transform="translate(160,34)"/>
<path d="M0 0 C0.66 0 1.32 0 2 0 C2 1.32 2 2.64 2 4 C3.32 4 4.64 4 6 4 C6 4.66 6 5.32 6 6 C4.68 6 3.36 6 2 6 C2 11.28 2 16.56 2 22 C3.32 22 4.64 22 6 22 C6 22.99 6 23.98 6 25 C3.625 25.125 3.625 25.125 1 25 C-1 23 -1 23 -1.1953125 19.0859375 C-1.18200376 17.51550649 -1.15813602 15.94513779 -1.125 14.375 C-1.11597656 13.57320312 -1.10695312 12.77140625 -1.09765625 11.9453125 C-1.07406223 9.96341477 -1.03819065 7.98167019 -1 6 C-1.66 6 -2.32 6 -3 6 C-3 5.34 -3 4.68 -3 4 C-2.34 4 -1.68 4 -1 4 C-0.67 2.68 -0.34 1.36 0 0 Z " fill="#185053" transform="translate(190,27)"/>
<path d="M0 0 C0.99 0 1.98 0 3 0 C3 9.24 3 18.48 3 28 C2.01 28 1.02 28 0 28 C0 18.76 0 9.52 0 0 Z " fill="#165563" transform="translate(199,24)"/>
<path d="M0 0 C0.99 0 1.98 0 3 0 C3 9.24 3 18.48 3 28 C2.01 28 1.02 28 0 28 C0 18.76 0 9.52 0 0 Z " fill="#165563" transform="translate(175,24)"/>
<path d="M0 0 C-0.556875 0.391875 -1.11375 0.78375 -1.6875 1.1875 C-6.69227192 4.71085449 -6.69227192 4.71085449 -9.421875 9.92578125 C-9.59105345 14.41746915 -8.75115744 17.33179008 -6 21 C-8.5934165 20.62951193 -10.08065587 19.94398898 -12.25 18.4375 C-14.30119719 15.58047534 -14.57513462 13.45637667 -14.38671875 9.9609375 C-13.55738709 5.75563959 -10.85897814 3.63872733 -7.5625 1.1875 C-4.79485283 -0.0950682 -3.01173788 -0.25814896 0 0 Z " fill="#257F6D" transform="translate(79,23)"/>
<path d="M0 0 C-1.24735567 0.6509259 -2.49801832 1.29551669 -3.75 1.9375 C-4.44609375 2.29714844 -5.1421875 2.65679687 -5.859375 3.02734375 C-10.54875324 5.15810138 -14.96736975 5.15251645 -20.0625 5.125 C-20.78244141 5.12886719 -21.50238281 5.13273437 -22.24414062 5.13671875 C-25.42708639 5.13080799 -27.95947862 5.01350713 -31 4 C-31 3.34 -31 2.68 -31 2 C-30.3702124 1.98018066 -29.7404248 1.96036133 -29.09155273 1.93994141 C-26.2064864 1.84401103 -23.3220777 1.7346103 -20.4375 1.625 C-18.9515332 1.57859375 -18.9515332 1.57859375 -17.43554688 1.53125 C-12.89351203 1.3501722 -3.64488671 -1.82244336 0 0 Z " fill="#228076" transform="translate(81,86)"/>
<path d="M0 0 C0.99 0.33 1.98 0.66 3 1 C5.00875442 0.72428861 7.01178687 0.39764263 9 0 C9.84454356 3.37817425 10.10844919 5.67465243 9 9 C6 9 3 9 0 9 C0 6.03 0 3.06 0 0 Z " fill="#E2D3A5" transform="translate(267,71)"/>
<path d="M0 0 C0.66 0 1.32 0 2 0 C2 0.99 2 1.98 2 3 C3.65 3.33 5.3 3.66 7 4 C7 6.31 7 8.62 7 11 C2.25 12 2.25 12 0 12 C0 8.04 0 4.08 0 0 Z " fill="#DCBF7C" transform="translate(297,68)"/>
<path d="M0 0 C0.99 0 1.98 0 3 0 C3 6.93 3 13.86 3 21 C2.01 21 1.02 21 0 21 C0 14.07 0 7.14 0 0 Z " fill="#165665" transform="translate(182,31)"/>
<path d="M0 0 C0.53625 0.721875 1.0725 1.44375 1.625 2.1875 C4.21454469 5.25406608 6.87777554 7.48864554 10 10 C10.66 10.66 11.32 11.32 12 12 C8.04 12 4.08 12 0 12 C0 8.04 0 4.08 0 0 Z " fill="#000000" transform="translate(0,98)"/>
<path d="M0 0 C3.96 0 7.92 0 12 0 C12 3.96 12 7.92 12 12 C11.46375 11.278125 10.9275 10.55625 10.375 9.8125 C7.78545531 6.74593392 5.12222446 4.51135446 2 2 C1.34 1.34 0.68 0.68 0 0 Z " fill="#000000" transform="translate(488,0)"/>
<path d="M0 0 C1.67542976 0.28604898 3.34385343 0.61781233 5 1 C5.66 3.31 6.32 5.62 7 8 C4.10765685 8.82638376 2.11257569 9 -1 9 C-1.09765625 2.84765625 -1.09765625 2.84765625 -1 1 C-0.67 0.67 -0.34 0.34 0 0 Z " fill="#E0CA8D" transform="translate(289,71)"/>
<path d="M0 0 C1.67542976 0.28604898 3.34385343 0.61781233 5 1 C5.66 3.31 6.32 5.62 7 8 C4.10765685 8.82638376 2.11257569 9 -1 9 C-1.09765625 2.84765625 -1.09765625 2.84765625 -1 1 C-0.67 0.67 -0.34 0.34 0 0 Z " fill="#E0CA8D" transform="translate(280,71)"/>
<path d="M0 0 C4.70588235 0.70588235 4.70588235 0.70588235 6 2 C5.71269945 4.33944736 5.38063221 6.6739143 5 9 C3.33388095 9.042721 1.66617115 9.04063832 0 9 C-1 8 -1 8 -1.125 4.5 C-1 1 -1 1 0 0 Z " fill="#D6A335" transform="translate(229,71)"/>
<path d="M0 0 C4.70588235 0.70588235 4.70588235 0.70588235 6 2 C5.71269945 4.33944736 5.38063221 6.6739143 5 9 C3.33388095 9.042721 1.66617115 9.04063832 0 9 C-1 8 -1 8 -1.125 4.5 C-1 1 -1 1 0 0 Z " fill="#D6A335" transform="translate(141,71)"/>
<path d="M0 0 C4.70588235 0.70588235 4.70588235 0.70588235 6 2 C6.04080783 3.99958364 6.04254356 6.00045254 6 8 C4.0085944 8.38133299 2.00720923 8.71325582 0 9 C-1 8 -1 8 -1.125 4.5 C-1 1 -1 1 0 0 Z " fill="#E0CF9E" transform="translate(189,71)"/>
<path d="M0 0 C0.33 0 0.66 0 1 0 C1 3.96 1 7.92 1 12 C-2.96 12 -6.92 12 -11 12 C-9.68 11.01 -8.36 10.02 -7 9 C-3.98894452 6.20401991 -1.5626448 3.8355827 0 0 Z " fill="#000000" transform="translate(499,98)"/>
<path d="M0 0 C3.96 0 7.92 0 12 0 C10.68 0.99 9.36 1.98 8 3 C4.9710771 5.88117056 2.52134396 8.63820806 0 12 C0 8.04 0 4.08 0 0 Z " fill="#000000" transform="translate(0,0)"/>
<path d="M0 0 C0.99 0 1.98 0 3 0 C3.8680908 1.91040052 4.71901783 3.82860737 5.5625 5.75 C6.03816406 6.81734375 6.51382813 7.8846875 7.00390625 8.984375 C7.9946154 11.98369837 8.16161779 13.13421241 7 16 C6.34 16 5.68 16 5 16 C4.1605118 13.89828133 3.32860344 11.79353375 2.5 9.6875 C2.0359375 8.51574219 1.571875 7.34398437 1.09375 6.13671875 C0 3 0 3 0 0 Z " fill="#265F66" transform="translate(204,31)"/>
<path d="M0 0 C0.33 1.32 0.66 2.64 1 4 C1.66 4 2.32 4 3 4 C2.9278125 4.88300781 2.855625 5.76601563 2.78125 6.67578125 C2.20421489 14.13716579 1.86255665 21.51697331 2 29 C1.34 29 0.68 29 0 29 C0 19.43 0 9.86 0 0 Z " fill="#164E4A" transform="translate(155,31)"/>
<path d="M0 0 C0.66 0 1.32 0 2 0 C2 1.65 2 3.3 2 5 C3.98 5 5.96 5 8 5 C8 3.35 8 1.7 8 0 C8.33 0 8.66 0 9 0 C9 3.96 9 7.92 9 12 C8.34 12 7.68 12 7 12 C7 10.02 7 8.04 7 6 C5.35 6 3.7 6 2 6 C2 7.98 2 9.96 2 12 C1.34 12 0.68 12 0 12 C0 8.04 0 4.08 0 0 Z " fill="#D5A335" transform="translate(255,68)"/>
<path d="M0 0 C1.67542976 0.28604898 3.34385343 0.61781233 5 1 C5.33 2.32 5.66 3.64 6 5 C4.02 5 2.04 5 0 5 C0.33 5.66 0.66 6.32 1 7 C2.65 7 4.3 7 6 7 C5.67 7.66 5.34 8.32 5 9 C3.33388095 9.042721 1.66617115 9.04063832 0 9 C-1 8 -1 8 -1.125 4.5 C-1 1 -1 1 0 0 Z " fill="#D8B15C" transform="translate(201,71)"/>
<path d="M0 0 C0.33 0 0.66 0 1 0 C1.08636719 0.69867188 1.17273438 1.39734375 1.26171875 2.1171875 C1.68204824 4.83968863 2.13743453 7.38196209 3 10 C5.45748398 11.75568004 5.45748398 11.75568004 8 12 C8 12.33 8 12.66 8 13 C5.69 12.67 3.38 12.34 1 12 C1 15.3 1 18.6 1 22 C0.67 22 0.34 22 0 22 C-1.33257403 7.40318907 -1.33257403 7.40318907 0 0 Z " fill="#1A5C73" transform="translate(157,38)"/>
<path d="M0 0 C0.33 0 0.66 0 1 0 C1 4.95 1 9.9 1 15 C3.97 15.495 3.97 15.495 7 16 C7 16.99 7 17.98 7 19 C4.625 19.125 4.625 19.125 2 19 C0 17 0 17 -0.1953125 13.0859375 C-0.18200376 11.51550649 -0.15813602 9.94513779 -0.125 8.375 C-0.11597656 7.57320312 -0.10695312 6.77140625 -0.09765625 5.9453125 C-0.07406223 3.96341477 -0.03819065 1.98167019 0 0 Z " fill="#355651" transform="translate(189,33)"/>
<path d="M0 0 C0.33 0 0.66 0 1 0 C1.36098063 1.97793521 1.71361348 3.95739573 2.0625 5.9375 C2.25972656 7.03964844 2.45695313 8.14179687 2.66015625 9.27734375 C2.77230469 10.17582031 2.88445312 11.07429688 3 12 C2.67 12.33 2.34 12.66 2 13 C1.76346477 15.52596259 1.57826308 18.03107207 1.4375 20.5625 C1.39431641 21.27341797 1.35113281 21.98433594 1.30664062 22.71679688 C1.20028223 24.47761912 1.09961154 26.2387832 1 28 C0.67 28 0.34 28 0 28 C0 18.76 0 9.52 0 0 Z " fill="#C1F1E9" transform="translate(202,24)"/>
<path d="M0 0 C1.65 0.33 3.3 0.66 5 1 C5 4.11257569 4.82638376 6.10765685 4 9 C2.35 9 0.7 9 -1 9 C0 7 0 7 3 6 C1.68 5.34 0.36 4.68 -1 4 C-0.67 2.68 -0.34 1.36 0 0 Z " fill="#D8B25C" transform="translate(272,71)"/>
<path d="M0 0 C0.33 0 0.66 0 1 0 C1.33 2.31 1.66 4.62 2 7 C2.66 7 3.32 7 4 7 C4.33 4.69 4.66 2.38 5 0 C5.66 0 6.32 0 7 0 C7 2.97 7 5.94 7 9 C5.00045254 9.04254356 2.99958364 9.04080783 1 9 C0 8 0 8 -0.09765625 6.15234375 C-0.06510417 4.1015625 -0.03255208 2.05078125 0 0 Z " fill="#D6A53E" transform="translate(237,71)"/>
<path d="M0 0 C0.33 0 0.66 0 1 0 C1.33 2.31 1.66 4.62 2 7 C2.66 7 3.32 7 4 7 C4.33 4.69 4.66 2.38 5 0 C5.66 0 6.32 0 7 0 C7 2.97 7 5.94 7 9 C5.00045254 9.04254356 2.99958364 9.04080783 1 9 C0 8 0 8 -0.09765625 6.15234375 C-0.06510417 4.1015625 -0.03255208 2.05078125 0 0 Z " fill="#D6A53E" transform="translate(149,71)"/>
<path d="M0 0 C4.67692308 1.47692308 4.67692308 1.47692308 6.3125 4.125 C6.539375 4.74375 6.76625 5.3625 7 6 C2.91621717 5.25749403 -1.01939223 4.17076699 -5 3 C-5 2.67 -5 2.34 -5 2 C-3.35 2 -1.7 2 0 2 C0 1.34 0 0.68 0 0 Z " fill="#2C6366" transform="translate(144,25)"/>
<path d="M0 0 C0.99 0 1.98 0 3 0 C2.625 2.4375 2.625 2.4375 2 5 C-0.70879335 6.35439668 -3.00933268 6.06501451 -6 6 C-6 5.01 -6 4.02 -6 3 C-5.195625 2.87625 -4.39125 2.7525 -3.5625 2.625 C-2.716875 2.41875 -1.87125 2.2125 -1 2 C-0.67 1.34 -0.34 0.68 0 0 Z " fill="#356765" transform="translate(167,46)"/>
<path d="M0 0 C0.99 0 1.98 0 3 0 C3 2.31 3 4.62 3 7 C1.68 6.67 0.36 6.34 -1 6 C-1.042721 4.33388095 -1.04063832 2.66617115 -1 1 C-0.67 0.67 -0.34 0.34 0 0 Z " fill="#E9EFE6" transform="translate(230,72)"/>
<path d="M0 0 C0.99 0 1.98 0 3 0 C3 2.31 3 4.62 3 7 C1.68 6.67 0.36 6.34 -1 6 C-1.042721 4.33388095 -1.04063832 2.66617115 -1 1 C-0.67 0.67 -0.34 0.34 0 0 Z " fill="#E9EFE6" transform="translate(142,72)"/>
<path d="M0 0 C0.66 0.33 1.32 0.66 2 1 C-4.46 8.82 -4.46 8.82 -8 10 C-6.5682479 4.98886765 -4.01554307 3.05530451 0 0 Z " fill="#348672" transform="translate(46,26)"/>
<path d="M0 0 C-0.875 3.875 -0.875 3.875 -2 5 C-3.99958364 5.04080783 -6.00045254 5.04254356 -8 5 C-3.22727273 0 -3.22727273 0 0 0 Z " fill="#1E5451" transform="translate(150,46)"/>
<path d="M0 0 C0.33 0 0.66 0 1 0 C1 4.29 1 8.58 1 13 C0.01 12.67 -0.98 12.34 -2 12 C-1.34 8.04 -0.68 4.08 0 0 Z " fill="#17555E" transform="translate(170,35)"/>
<path d="M0 0 C2.64 0 5.28 0 8 0 C8 0.66 8 1.32 8 2 C5.03 2.66 2.06 3.32 -1 4 C-0.67 2.68 -0.34 1.36 0 0 Z " fill="#225955" transform="translate(136,25)"/>
<path d="M0 0 C1.32 0.33 2.64 0.66 4 1 C3.67 1.99 3.34 2.98 3 4 C2.01 4 1.02 4 0 4 C-0.33 4.99 -0.66 5.98 -1 7 C-1.33 6.34 -1.66 5.68 -2 5 C-1.0625 2.375 -1.0625 2.375 0 0 Z " fill="#42665F" transform="translate(218,31)"/>
<path d="M0 0 C2.96175123 0.61277612 4.38058783 1.25372522 7 3 C3.37 3 -0.26 3 -4 3 C-2.68 2.67 -1.36 2.34 0 2 C0 1.34 0 0.68 0 0 Z " fill="#3A6C68" transform="translate(139,49)"/>
<path d="M0 0 C0.66 0.33 1.32 0.66 2 1 C2.40729228 3.32156597 2.74438677 5.6568787 3 8 C2.01 7.67 1.02 7.34 0 7 C0 5.68 0 4.36 0 3 C-0.66 2.67 -1.32 2.34 -2 2 C-1.34 2 -0.68 2 0 2 C0 1.34 0 0.68 0 0 Z " fill="#D09F47" transform="translate(293,72)"/>
<path d="M0 0 C0.66 0.33 1.32 0.66 2 1 C2.40729228 3.32156597 2.74438677 5.6568787 3 8 C2.01 7.67 1.02 7.34 0 7 C0 5.68 0 4.36 0 3 C-0.66 2.67 -1.32 2.34 -2 2 C-1.34 2 -0.68 2 0 2 C0 1.34 0 0.68 0 0 Z " fill="#D09F47" transform="translate(284,72)"/>
</svg>
