<?xml version="1.0" encoding="UTF-8"?>
<svg version="1.1" xmlns="http://www.w3.org/2000/svg" width="96" height="96">
<path d="M0 0 C1.91232422 -0.02126953 1.91232422 -0.02126953 3.86328125 -0.04296875 C7.85325384 0.19748925 10.91288569 0.9520829 14.6875 2.1875 C14.42578125 4.09375 14.42578125 4.09375 13.6875 6.1875 C11.98046875 7.09375 11.98046875 7.09375 9.875 7.6875 C6.2412339 8.90526749 3.98256245 9.97441257 1.6875 13.1875 C0.49713163 16.83796299 0.53509506 18.70170927 1.6875 22.375 C4.19039591 25.89469737 6.76279084 26.82894683 10.6875 28.1875 C18.41515422 31.20446089 23.82160157 34.52067623 27.6875 42.1875 C28.59709125 49.04630966 28.77856186 56.40552774 25.0625 62.45703125 C19.03194111 70.04662668 9.3806466 76.5839869 -0.3125 78.1875 C-2.76873666 78.30670787 -5.22840292 78.36272906 -7.6875 78.375 C-8.97398438 78.38917969 -10.26046875 78.40335937 -11.5859375 78.41796875 C-15.19702711 78.19464141 -17.96011667 77.50043032 -21.3125 76.1875 C-21.3125 74.8675 -21.3125 73.5475 -21.3125 72.1875 C-20.075 71.775 -18.8375 71.3625 -17.5625 70.9375 C-13.98618627 69.5702721 -11.55463104 68.4161687 -9.3125 65.1875 C-8.11994953 61.16264216 -8.03788176 58.96558502 -9.4375 55 C-12.45630152 50.99611588 -17.50543113 50.43124978 -22.109375 49.171875 C-27.74361306 47.44037745 -30.96195505 44.81507981 -34.75 40.25 C-37.82035737 34.18903479 -37.36437054 26.12734647 -35.65234375 19.71484375 C-31.19109088 9.69150938 -20.7963725 5.38073473 -11.3125 1.1875 C-7.60112184 -0.10853682 -3.90828747 0.01963964 0 0 Z " fill="#FFFFFF" transform="translate(52.3125,8.8125)"/>
</svg>
