<?xml version="1.0" standalone="no"?>
<!DOCTYPE svg PUBLIC "-//W3C//DTD SVG 20010904//EN"
 "http://www.w3.org/TR/2001/REC-SVG-20010904/DTD/svg10.dtd">
<svg version="1.0" xmlns="http://www.w3.org/2000/svg"
 width="1080.000000pt" height="1920.000000pt" viewBox="0 0 1080.000000 1920.000000"
 preserveAspectRatio="xMidYMid meet">

<g transform="translate(0.000000,1920.000000) scale(0.100000,-0.100000)"
fill="#000000" stroke="none">
<path d="M0 9600 l0 -9600 5400 0 5400 0 0 9600 0 9600 -5400 0 -5400 0 0
-9600z m5670 2120 c90 -11 240 -48 240 -59 0 -3 -37 -16 -81 -29 -163 -45
-308 -133 -376 -229 -108 -152 -37 -399 128 -447 30 -8 109 -28 177 -45 378
-93 572 -294 572 -591 -1 -365 -259 -641 -680 -725 -152 -30 -596 -28 -714 3
-26 7 -25 8 25 21 140 34 269 123 324 223 27 47 30 62 30 138 0 145 -48 208
-272 361 -168 115 -220 162 -281 253 -144 216 -165 485 -54 701 106 210 355
374 623 414 40 6 85 13 99 15 53 7 159 6 240 -4z m-230 -3060 l0 -260 -35 0
-35 0 0 260 0 260 35 0 35 0 0 -260z m140 230 c0 -28 -3 -30 -35 -30 -32 0
-35 2 -35 30 0 28 3 30 35 30 32 0 35 -2 35 -30z m320 -230 l0 -260 -35 0 -35
0 0 260 0 260 35 0 35 0 0 -260z m-1078 240 c37 -11 98 -69 98 -94 0 -8 -13
-16 -29 -18 -24 -3 -34 1 -50 23 -27 36 -85 54 -146 45 -55 -9 -85 -35 -85
-75 0 -42 34 -65 136 -90 146 -37 184 -68 184 -152 0 -40 -6 -55 -30 -83 -39
-43 -85 -59 -175 -59 -88 0 -156 27 -185 75 -25 41 -22 52 16 56 24 2 33 -2
42 -23 15 -33 67 -55 132 -55 70 0 115 21 128 58 23 66 -13 96 -148 126 -90
20 -133 44 -156 87 -34 66 5 153 79 177 42 13 143 14 189 2z m898 -75 c0 -45
0 -45 35 -45 31 0 35 -3 35 -25 0 -22 -4 -25 -35 -25 l-35 0 0 -121 c0 -136 7
-159 50 -159 25 0 30 -4 30 -24 0 -45 -105 -43 -129 3 -6 11 -11 80 -11 160 0
134 -1 141 -20 141 -30 0 -28 47 2 52 18 2 24 12 31 46 6 32 13 42 28 42 16 0
19 -7 19 -45z m-469 -61 c41 -21 62 -77 63 -164 0 -86 -14 -138 -48 -169 -48
-45 -135 -48 -181 -5 l-25 23 0 -99 0 -100 -35 0 -35 0 0 266 0 265 33 -3 c24
-2 33 -8 35 -24 l3 -22 25 23 c39 36 105 40 165 9z m329 -174 l0 -190 -35 0
-35 0 0 190 0 190 35 0 35 0 0 -190z m469 50 c28 -77 51 -145 51 -150 0 -6 4
-10 8 -10 4 0 30 68 57 150 l49 150 33 0 c18 0 33 -3 33 -7 0 -13 -143 -378
-166 -424 -32 -65 -76 -99 -125 -99 -35 0 -39 3 -39 25 0 20 5 25 24 25 31 0
75 36 91 73 11 27 7 44 -61 213 -41 101 -74 186 -74 189 0 3 15 5 34 5 l33 0
52 -140z m-1399 -586 c0 -9 -5 -14 -12 -12 -18 6 -21 28 -4 28 9 0 16 -7 16
-16z m340 -99 c0 -96 -3 -115 -15 -115 -12 0 -15 19 -15 115 0 96 3 115 15
115 12 0 15 -19 15 -115z m1430 99 c0 -17 -22 -14 -28 4 -2 7 3 12 12 12 9 0
16 -7 16 -16z m590 -24 c0 -37 2 -40 19 -30 53 28 91 -2 91 -73 0 -74 -37
-105 -91 -77 -13 7 -19 7 -19 0 0 -5 -7 -10 -15 -10 -12 0 -15 19 -15 115 0
96 3 115 15 115 11 0 15 -11 15 -40z m-3339 -20 c17 -27 34 -50 37 -50 4 0 20
23 37 50 16 28 35 50 42 50 19 0 17 -5 -27 -70 -32 -47 -40 -68 -40 -104 0
-34 -4 -46 -15 -46 -11 0 -15 12 -15 51 0 42 -6 59 -40 110 -30 42 -36 59 -25
59 8 0 29 -22 46 -50z m879 35 c17 -9 30 -22 30 -30 0 -19 -9 -19 -30 0 -9 8
-30 18 -47 21 -67 13 -112 -88 -64 -147 23 -28 81 -31 109 -6 10 9 25 17 33
17 8 0 0 -13 -19 -30 -71 -65 -173 -17 -172 82 1 86 82 133 160 93z m891 -35
c17 -27 34 -50 37 -50 4 0 20 23 37 50 16 28 35 50 42 50 19 0 17 -5 -27 -70
-32 -47 -40 -68 -40 -104 0 -34 -4 -46 -15 -46 -11 0 -15 12 -15 51 0 42 -6
59 -40 110 -30 42 -36 59 -25 59 8 0 29 -22 46 -50z m759 0 l0 -51 58 3 57 3
3 48 c2 26 7 47 13 47 5 0 9 -48 9 -110 0 -67 -4 -110 -10 -110 -5 0 -10 23
-10 50 l0 50 -60 0 -60 0 0 -50 c0 -38 -4 -50 -15 -50 -12 0 -15 19 -15 110 0
91 3 110 15 110 11 0 15 -12 15 -50z m-2252 -16 c18 -12 22 -25 22 -65 0 -58
-24 -89 -70 -89 -45 0 -70 31 -70 85 0 74 60 110 118 69z m94 -56 l3 -73 33 0
c34 0 42 -9 16 -19 -56 -21 -84 12 -84 101 0 49 3 63 15 63 11 0 15 -17 17
-72z m108 -13 c0 -66 -3 -85 -14 -85 -18 0 -22 22 -18 103 3 49 7 67 18 67 11
0 14 -18 14 -85z m72 68 c2 -10 2 -48 0 -85 -3 -50 -7 -68 -18 -68 -11 0 -14
18 -14 85 0 66 3 85 14 85 7 0 15 -8 18 -17z m48 8 c0 -10 -30 -24 -37 -17 -3
3 -2 9 2 15 8 13 35 15 35 2z m380 -76 c0 -69 -3 -85 -15 -85 -12 0 -15 16
-15 85 0 69 3 85 15 85 12 0 15 -16 15 -85z m72 68 c2 -10 2 -48 0 -85 -3 -50
-7 -68 -18 -68 -11 0 -14 18 -14 85 0 66 3 85 14 85 7 0 15 -8 18 -17z m48 8
c0 -10 -30 -24 -37 -17 -3 3 -2 9 2 15 8 13 35 15 35 2z m138 -7 c12 -8 22
-19 22 -25 0 -15 -22 -10 -35 7 -8 12 -20 15 -38 10 -35 -8 -47 -64 -23 -101
18 -28 53 -33 62 -10 7 16 34 21 34 6 0 -15 -42 -41 -67 -41 -38 0 -63 34 -63
85 0 73 53 108 108 69z m242 -4 c11 -11 20 -31 20 -45 0 -24 -3 -25 -60 -25
-33 0 -60 -3 -60 -8 0 -4 7 -18 16 -30 16 -23 58 -30 69 -12 3 6 14 10 23 10
31 -1 -27 -40 -59 -40 -44 0 -69 31 -69 85 0 54 25 85 70 85 17 0 39 -9 50
-20z m568 4 c18 -12 22 -25 22 -65 0 -58 -24 -89 -70 -89 -45 0 -70 31 -70 85
0 74 60 110 118 69z m94 -56 l3 -73 33 0 c34 0 42 -9 16 -19 -56 -21 -84 12
-84 101 0 49 3 63 15 63 11 0 15 -17 17 -72z m108 -13 c0 -66 -3 -85 -14 -85
-18 0 -22 22 -18 103 3 49 7 67 18 67 11 0 14 -18 14 -85z m72 68 c2 -10 2
-48 0 -85 -3 -50 -7 -68 -18 -68 -11 0 -14 18 -14 85 0 66 3 85 14 85 7 0 15
-8 18 -17z m48 8 c0 -10 -30 -24 -37 -17 -3 3 -2 9 2 15 8 13 35 15 35 2z
m380 -76 c0 -69 -3 -85 -15 -85 -12 0 -15 16 -15 85 0 69 3 85 15 85 12 0 15
-16 15 -85z m146 71 c10 -8 16 -18 11 -22 -4 -4 -13 -2 -19 4 -15 15 -65 16
-73 2 -11 -17 13 -37 51 -44 24 -5 39 -15 47 -33 10 -22 8 -28 -12 -44 -30
-25 -73 -24 -102 1 -18 14 -20 19 -8 20 8 0 20 -5 26 -11 6 -6 23 -9 39 -7 21
2 29 8 29 23 0 14 -12 24 -45 35 -34 12 -46 21 -48 40 -7 44 61 67 104 36z
m165 4 c15 -9 19 -22 19 -71 0 -44 4 -61 15 -65 22 -9 18 -24 -5 -24 -11 0
-23 7 -26 15 -5 13 -8 13 -27 0 -44 -31 -87 -13 -87 37 0 33 24 48 74 48 37 0
47 15 24 38 -17 17 -57 15 -64 -3 -8 -19 -24 -20 -24 0 0 30 62 45 101 25z
m180 0 c15 -9 19 -22 19 -71 0 -44 4 -61 15 -65 22 -9 18 -24 -5 -24 -11 0
-23 7 -26 15 -5 13 -8 13 -27 0 -44 -31 -87 -13 -87 37 0 33 24 48 74 48 37 0
47 15 24 38 -17 17 -57 15 -64 -3 -8 -19 -24 -20 -24 0 0 30 62 45 101 25z
m-1661 -145 c0 -8 -7 -15 -15 -15 -8 0 -15 7 -15 15 0 8 7 15 15 15 8 0 15 -7
15 -15z m1950 0 c0 -8 -7 -15 -15 -15 -8 0 -15 7 -15 15 0 8 7 15 15 15 8 0
15 -7 15 -15z m-3581 -6535 c4 0 12 5 18 11 16 16 53 1 63 -27 23 -59 -18
-117 -66 -96 -17 8 -24 8 -28 -1 -2 -7 -4 33 -4 88 1 55 3 83 5 63 2 -21 8
-38 12 -38z m538 -72 c-2 -29 -3 -8 -3 47 0 55 1 79 3 53 2 -26 2 -71 0 -100z
m703 132 c0 -5 -4 -10 -10 -10 -15 0 -12 -30 3 -31 10 0 10 -2 0 -6 -9 -3 -13
-27 -13 -69 0 -36 -4 -64 -10 -64 -6 0 -10 28 -10 65 0 45 -4 65 -12 66 -10 0
-10 2 0 6 6 2 12 13 12 23 0 17 12 27 33 29 4 1 7 -3 7 -9z m370 0 c0 -5 -4
-10 -10 -10 -15 0 -12 -30 3 -31 10 0 10 -2 0 -6 -9 -3 -13 -27 -13 -69 0 -36
-4 -64 -10 -64 -6 0 -10 28 -10 65 0 45 -4 65 -12 66 -10 0 -10 2 0 6 6 2 12
13 12 23 0 17 12 27 33 29 4 1 7 -3 7 -9z m560 -85 c0 -57 -4 -95 -10 -95 -5
0 -10 5 -10 10 0 7 -6 7 -19 0 -27 -14 -37 -13 -55 6 -32 31 -12 124 25 124 6
0 19 -5 30 -10 17 -10 19 -7 19 25 0 19 5 35 10 35 6 0 10 -38 10 -95z m-2392
50 c19 -23 23 -36 18 -64 -8 -50 -35 -73 -95 -79 l-51 -5 0 93 0 93 52 -5 c41
-4 57 -11 76 -33z m2720 23 c20 -20 14 -46 -13 -60 -24 -13 -24 -15 -9 -36 19
-27 31 -28 39 -2 3 11 11 20 16 20 5 0 2 -14 -6 -31 -16 -29 -15 -31 4 -36 23
-6 29 -23 9 -23 -7 0 -19 4 -27 9 -9 6 -23 5 -38 -2 -56 -25 -100 40 -53 80
14 12 18 24 13 42 -9 38 38 66 65 39z m-2350 -28 c15 -1 15 -2 0 -11 -25 -14
-25 -94 -1 -108 21 -11 11 -26 -12 -18 -11 5 -15 21 -15 60 0 29 -5 58 -12 65
-9 9 -9 12 0 12 7 0 13 8 13 18 1 16 2 16 6 0 2 -10 12 -18 21 -18z m530 0
c15 -1 15 -2 0 -11 -25 -14 -25 -94 -1 -108 21 -11 11 -26 -12 -18 -11 5 -15
21 -15 60 0 29 -5 58 -12 65 -9 9 -9 12 0 12 7 0 13 8 13 18 1 16 2 16 6 0 2
-10 12 -18 21 -18z m70 0 c15 -1 15 -2 0 -11 -25 -14 -25 -94 -1 -108 21 -11
11 -26 -12 -18 -11 5 -15 21 -15 60 0 29 -5 58 -12 65 -9 9 -9 12 0 12 7 0 13
8 13 18 1 16 2 16 6 0 2 -10 12 -18 21 -18z m2880 0 c15 -1 15 -2 0 -11 -25
-14 -25 -94 -1 -108 21 -11 11 -26 -12 -18 -11 5 -15 21 -15 60 0 29 -5 58
-12 65 -9 9 -9 12 0 12 7 0 13 8 13 18 1 16 2 16 6 0 2 -10 12 -18 21 -18z
m-3706 -12 c8 -7 18 -23 21 -35 5 -22 2 -23 -44 -23 -42 0 -49 -3 -49 -20 0
-26 34 -44 59 -30 29 15 39 12 17 -5 -44 -33 -96 -1 -96 59 0 53 54 84 92 54z
m414 -3 c22 -16 12 -20 -16 -5 -10 5 -26 7 -35 4 -26 -10 -13 -36 25 -48 45
-14 54 -50 16 -68 -20 -8 -32 -8 -52 1 -15 6 -24 14 -21 17 3 3 15 1 26 -6 15
-8 27 -8 42 0 27 15 20 31 -21 45 -46 15 -61 42 -36 61 25 18 47 18 72 -1z
m85 6 c45 24 85 -21 72 -81 -7 -39 -37 -56 -69 -42 -21 10 -23 9 -27 -26 -2
-20 -4 8 -5 63 0 55 2 94 5 88 3 -10 10 -10 24 -2z m176 -98 c-2 -21 -4 -4 -4
37 0 41 2 58 4 38 2 -21 2 -55 0 -75z m200 0 c-2 -21 -4 -4 -4 37 0 41 2 58 4
38 2 -21 2 -55 0 -75z m92 99 c37 23 56 1 59 -71 2 -38 -1 -61 -8 -61 -6 0
-10 25 -10 60 0 57 -1 60 -24 60 -33 0 -44 -17 -49 -75 -3 -39 -4 -33 -5 25
-1 44 2 70 7 62 7 -12 12 -12 30 0z m162 -2 c13 -7 19 -7 19 0 0 5 5 10 10 10
6 0 10 -33 10 -80 0 -74 -2 -81 -25 -96 -26 -17 -75 -13 -75 6 0 12 11 12 29
1 21 -13 51 5 51 30 0 16 -3 18 -19 9 -27 -14 -37 -13 -55 6 -32 31 -12 124
25 124 6 0 19 -5 30 -10z m304 -4 c26 -19 26 -94 -1 -113 -43 -31 -94 -1 -94
57 0 59 51 88 95 56z m65 -76 l-7 -55 -1 75 c0 45 2 67 7 55 4 -11 5 -45 1
-75z m30 70 c-8 -5 -17 -7 -19 -4 -3 3 1 9 9 14 8 5 17 7 19 4 3 -3 -1 -9 -9
-14z m200 -70 l-7 -55 -1 75 c0 45 2 67 7 55 4 -11 5 -45 1 -75z m30 70 c-8
-5 -17 -7 -19 -4 -3 3 1 9 9 14 8 5 17 7 19 4 3 -3 -1 -9 -9 -14z m57 -87 c-2
-21 -4 -4 -4 37 0 41 2 58 4 38 2 -21 2 -55 0 -75z m135 95 c8 -7 18 -23 21
-35 5 -22 2 -23 -44 -23 -42 0 -49 -3 -49 -20 0 -26 34 -44 59 -30 29 15 39
12 17 -5 -44 -33 -96 -1 -96 59 0 53 54 84 92 54z m97 4 c37 23 56 1 59 -71 2
-38 -1 -61 -8 -61 -6 0 -10 25 -10 60 0 57 -1 60 -24 60 -33 0 -44 -17 -49
-75 -3 -39 -4 -33 -5 25 -1 44 2 70 7 62 7 -12 12 -12 30 0z m317 -7 c22 -16
12 -20 -16 -5 -10 5 -26 7 -35 4 -26 -10 -13 -36 25 -48 45 -14 54 -50 16 -68
-20 -8 -32 -8 -52 1 -15 6 -24 14 -21 17 3 3 15 1 26 -6 15 -8 27 -8 42 0 27
15 20 31 -21 45 -46 15 -61 42 -36 61 25 18 47 18 72 -1z m374 -75 l-7 -55 -1
75 c0 45 2 67 7 55 4 -11 5 -45 1 -75z m30 70 c-8 -5 -17 -7 -19 -4 -3 3 1 9
9 14 8 5 17 7 19 4 3 -3 -1 -9 -9 -14z m135 6 c26 -19 26 -94 -1 -113 -43 -31
-94 -1 -94 57 0 59 51 88 95 56z m140 0 c26 -19 26 -94 -1 -113 -43 -31 -94
-1 -94 57 0 59 51 88 95 56z m65 -71 l-7 -60 -1 75 c-1 43 2 69 7 60 4 -8 5
-42 1 -75z m66 75 c8 -8 19 -7 37 1 41 19 57 -1 57 -72 0 -33 -4 -59 -10 -59
-6 0 -10 27 -10 60 0 57 -1 60 -24 60 -28 0 -35 -15 -38 -78 -1 -47 -1 -47 -5
-7 -6 70 -12 85 -34 85 -11 0 -17 5 -14 10 8 13 28 13 41 0z m154 -75 l-7 -60
-1 75 c-1 43 2 69 7 60 4 -8 5 -42 1 -75z m66 75 c8 -8 19 -7 37 1 41 19 57
-1 57 -72 0 -33 -4 -59 -10 -59 -6 0 -10 27 -10 60 0 57 -1 60 -24 60 -28 0
-35 -15 -38 -78 -1 -47 -1 -47 -5 -7 -6 70 -12 85 -34 85 -11 0 -17 5 -14 10
8 13 28 13 41 0z m223 1 c9 -6 18 -34 21 -68 8 -62 4 -78 -13 -52 -9 15 -13
15 -38 1 -22 -14 -30 -14 -43 -3 -36 30 -12 71 41 71 22 0 33 5 33 15 0 20
-32 36 -51 24 -23 -14 -36 -10 -15 6 23 17 44 19 65 6z m213 -3 c8 -7 18 -23
21 -35 5 -22 2 -23 -44 -23 -42 0 -49 -3 -49 -20 0 -26 34 -44 59 -30 29 15
39 12 17 -5 -44 -33 -96 -1 -96 59 0 53 54 84 92 54z m134 -3 c22 -16 12 -20
-16 -5 -10 5 -26 7 -35 4 -26 -10 -13 -36 25 -48 45 -14 54 -50 16 -68 -20 -8
-32 -8 -52 1 -15 6 -24 14 -21 17 3 3 15 1 26 -6 15 -8 27 -8 42 0 27 15 20
31 -21 45 -46 15 -61 42 -36 61 25 18 47 18 72 -1z"/>
<path d="M5090 8705 c-20 -21 -25 -39 -28 -95 -5 -87 10 -136 50 -156 40 -21
93 -11 113 20 35 52 31 195 -6 235 -30 31 -98 29 -129 -4z"/>
<path d="M7020 7971 c-26 -50 -2 -115 41 -109 52 7 48 128 -5 128 -15 0 -30
-8 -36 -19z"/>
<path d="M3872 7982 c-7 -5 -15 -24 -18 -43 -13 -77 77 -112 91 -36 9 46 -9
87 -37 87 -13 0 -29 -4 -36 -8z"/>
<path d="M5073 7978 c-27 -35 -25 -38 26 -38 44 0 50 2 44 18 -12 32 -52 43
-70 20z"/>
<path d="M5642 7982 c-7 -5 -15 -24 -18 -43 -13 -77 77 -112 91 -36 9 46 -9
87 -37 87 -13 0 -29 -4 -36 -8z"/>
<path d="M6650 7905 c-18 -21 -5 -45 24 -45 22 0 56 31 56 52 0 14 -67 8 -80
-7z"/>
<path d="M6830 7905 c-18 -21 -5 -45 24 -45 22 0 56 31 56 52 0 14 -67 8 -80
-7z"/>
<path d="M3619 1296 c-14 -29 -5 -72 16 -80 37 -14 64 27 51 79 -9 34 -52 35
-67 1z"/>
<path d="M5716 1317 c-13 -9 -17 -24 -14 -52 3 -37 5 -40 33 -40 28 0 30 3 33
42 4 49 -21 72 -52 50z"/>
<path d="M3290 1290 l0 -70 35 0 c44 0 75 29 75 70 0 41 -31 70 -75 70 l-35 0
0 -70z"/>
<path d="M6071 1356 c-6 -7 -9 -21 -5 -30 7 -19 9 -19 35 -6 23 13 25 36 3 44
-21 8 -20 8 -33 -8z"/>
<path d="M6046 1274 c-9 -9 -15 -23 -12 -31 3 -8 6 -17 6 -19 0 -7 59 -4 63 4
3 4 -5 20 -17 35 -22 27 -24 28 -40 11z"/>
<path d="M3485 1317 c-24 -18 -11 -37 25 -37 36 0 45 13 24 34 -19 19 -25 20
-49 3z"/>
<path d="M4036 1314 c-29 -28 -11 -104 24 -104 18 0 40 33 40 60 0 27 -22 60
-40 60 -5 0 -16 -7 -24 -16z"/>
<path d="M4638 1319 c-26 -15 -25 -85 1 -99 41 -22 71 58 35 94 -8 9 -16 16
-17 16 -1 0 -10 -5 -19 -11z"/>
<path d="M4918 1319 c-26 -15 -25 -85 1 -99 25 -13 27 -13 45 6 9 8 16 28 16
44 0 26 -22 60 -38 60 -4 0 -15 -5 -24 -11z"/>
<path d="M5435 1317 c-24 -18 -11 -37 25 -37 36 0 45 13 24 34 -19 19 -25 20
-49 3z"/>
<path d="M6388 1319 c-26 -15 -25 -85 1 -99 25 -13 27 -13 45 6 9 8 16 28 16
44 0 26 -22 60 -38 60 -4 0 -15 -5 -24 -11z"/>
<path d="M6528 1319 c-26 -15 -25 -85 1 -99 25 -13 27 -13 45 6 9 8 16 28 16
44 0 26 -22 60 -38 60 -4 0 -15 -5 -24 -11z"/>
<path d="M7097 1263 c-12 -11 -7 -41 7 -46 18 -7 56 20 56 39 0 14 -50 20 -63
7z"/>
<path d="M7315 1317 c-24 -18 -11 -37 25 -37 36 0 45 13 24 34 -19 19 -25 20
-49 3z"/>
</g>
</svg>
