<?xml version="1.0" standalone="no"?>
<!DOCTYPE svg PUBLIC "-//W3C//DTD SVG 20010904//EN"
 "http://www.w3.org/TR/2001/REC-SVG-20010904/DTD/svg10.dtd">
<svg version="1.0" xmlns="http://www.w3.org/2000/svg"
 width="1080.000000pt" height="1920.000000pt" viewBox="0 0 1080.000000 1920.000000"
 preserveAspectRatio="xMidYMid meet">

<g transform="translate(0.000000,1920.000000) scale(0.100000,-0.100000)"
fill="#000000" stroke="none">
<path d="M4480 11985 c-176 -39 -333 -164 -416 -330 -64 -131 -64 -120 -64
-1047 0 -563 4 -854 11 -890 6 -29 31 -96 56 -148 38 -80 59 -107 132 -180 88
-87 155 -130 261 -166 52 -18 101 -19 945 -19 l890 0 70 22 c191 61 342 209
408 403 22 65 22 66 25 934 3 972 6 921 -69 1075 -33 66 -60 103 -123 166 -87
88 -140 123 -245 164 l-66 26 -875 2 c-723 1 -886 -1 -940 -12z m1190 -265
c90 -11 240 -48 240 -59 0 -3 -37 -16 -81 -29 -163 -45 -308 -133 -376 -229
-108 -152 -37 -399 128 -447 30 -8 109 -28 177 -45 378 -93 572 -294 572 -591
-1 -365 -259 -641 -680 -725 -152 -30 -596 -28 -714 3 -26 7 -25 8 25 21 140
34 269 123 324 223 27 47 30 62 30 138 0 145 -48 208 -272 361 -168 115 -220
162 -281 253 -144 216 -165 485 -54 701 106 210 355 374 623 414 40 6 85 13
99 15 53 7 159 6 240 -4z"/>
<path d="M5380 8660 l0 -260 30 0 30 0 0 260 0 260 -30 0 -30 0 0 -260z"/>
<path d="M5510 8890 c0 -28 3 -30 35 -30 32 0 35 2 35 30 0 28 -3 30 -35 30
-32 0 -35 -2 -35 -30z"/>
<path d="M5840 8660 l0 -260 30 0 30 0 0 260 0 260 -30 0 -30 0 0 -260z"/>
<path d="M4651 8901 c-50 -13 -84 -43 -100 -88 -13 -35 -13 -46 0 -79 19 -50
65 -76 183 -105 95 -24 136 -50 136 -89 0 -58 -50 -90 -142 -90 -68 0 -117 21
-138 59 -11 22 -35 27 -59 12 -11 -7 -10 -15 8 -44 33 -53 90 -77 187 -77 129
1 194 41 201 127 7 90 -27 121 -174 159 -116 31 -143 49 -143 99 0 50 35 70
123 70 65 0 70 -2 98 -32 27 -31 71 -44 83 -25 9 15 -33 71 -66 88 -37 19
-146 27 -197 15z"/>
<path d="M5674 8825 c-5 -39 -10 -45 -30 -45 -19 0 -24 -5 -24 -25 0 -18 5
-25 19 -25 18 0 20 -10 23 -151 3 -173 6 -179 90 -179 45 0 48 2 48 25 0 22
-3 25 -24 19 -47 -11 -56 14 -56 157 l0 129 35 0 c31 0 35 3 35 25 0 22 -4 25
-35 25 -35 0 -35 0 -35 45 0 38 -3 45 -19 45 -16 0 -21 -9 -27 -45z"/>
<path d="M4994 8749 c3 -17 6 -137 6 -265 l0 -234 30 0 30 0 0 101 0 101 31
-26 c24 -21 41 -26 83 -26 97 0 136 54 136 190 0 136 -39 190 -136 190 -41 0
-59 -5 -82 -25 -17 -14 -33 -25 -36 -25 -3 0 -6 11 -6 25 0 21 -5 25 -31 25
-30 0 -31 -2 -25 -31z m201 -19 c35 -13 55 -65 55 -140 0 -110 -39 -160 -115
-146 -52 10 -75 52 -75 137 0 88 15 128 54 145 38 16 47 17 81 4z"/>
<path d="M5513 8653 c4 -71 7 -156 7 -190 l0 -63 30 0 30 0 0 190 0 190 -37 0
-36 0 6 -127z"/>
<path d="M5933 8768 c3 -7 37 -93 76 -191 l71 -178 -20 -39 c-22 -43 -45 -60
-84 -60 -21 0 -26 -5 -26 -26 0 -26 2 -26 46 -21 49 5 85 32 111 80 14 28 173
434 173 444 0 2 -14 3 -31 1 -32 -3 -33 -5 -82 -150 -27 -82 -53 -148 -56
-148 -3 0 -31 68 -61 150 l-55 150 -34 0 c-22 0 -32 -4 -28 -12z"/>
</g>
</svg>
